<svg width="15" height="12" viewBox="0 0 15 12" fill="none" xmlns="http://www.w3.org/2000/svg">
<path d="M1.125 12C0.825 12 0.5625 11.8875 0.3375 11.6625C0.1125 11.4375 0 11.175 0 10.875V1.125C0 0.825 0.1125 0.5625 0.3375 0.3375C0.5625 0.1125 0.825 0 1.125 0H13.875C14.175 0 14.4375 0.1125 14.6625 0.3375C14.8875 0.5625 15 0.825 15 1.125V10.875C15 11.175 14.8875 11.4375 14.6625 11.6625C14.4375 11.8875 14.175 12 13.875 12H1.125ZM7.5 6.3375L1.125 2.15625V10.875H13.875V2.15625L7.5 6.3375ZM7.5 5.2125L13.8 1.125H1.21875L7.5 5.2125ZM1.125 2.15625V1.125V10.875V2.15625Z" fill="#1A17A3"/>
</svg>
