<svg width="32" height="32" viewBox="0 0 32 32" fill="none" xmlns="http://www.w3.org/2000/svg">
<g clip-path="url(#clip0_15_18)">
<path d="M5.39 10.328C4.75933 10.328 4.334 10.24 4.114 10.064C3.90867 9.888 3.806 9.71933 3.806 9.558C3.806 9.32333 3.92333 9.11067 4.158 8.92C4.40733 8.72933 4.708 8.59733 5.06 8.524C5.48533 8.436 5.99867 8.348 6.6 8.26C7.216 8.15733 7.854 8.06933 8.514 7.996C9.174 7.908 9.81933 7.842 10.45 7.798C11.0807 7.754 11.6307 7.732 12.1 7.732C12.716 7.732 13.1853 7.84933 13.508 8.084C13.8453 8.304 14.014 8.50933 14.014 8.7C14.014 8.71467 14.014 8.744 14.014 8.788C14.014 8.90533 13.992 9.008 13.948 9.096C13.904 9.184 13.7573 9.272 13.508 9.36C13.2733 9.43333 12.87 9.514 12.298 9.602C11.7407 9.67533 10.9487 9.756 9.922 9.844C9.71667 9.85867 9.48933 9.88067 9.24 9.91C9.18133 10.306 9.09333 10.8267 8.976 11.472C8.85867 12.1173 8.72667 12.836 8.58 13.628C8.43333 14.42 8.27933 15.234 8.118 16.07C7.95667 16.8913 7.79533 17.676 7.634 18.424C7.48733 19.172 7.35533 19.832 7.238 20.404C7.13533 20.976 7.05467 21.4087 6.996 21.702C7.75867 21.5993 8.43333 21.5333 9.02 21.504C9.62133 21.46 10.0247 21.438 10.23 21.438C10.7727 21.438 11.044 21.6433 11.044 22.054C11.044 22.1713 10.7947 22.34 10.296 22.56C9.79733 22.78 9.15933 23.0073 8.382 23.242C7.60467 23.4767 6.798 23.6967 5.962 23.902C5.27267 24.0633 4.59067 24.188 3.916 24.276C3.256 24.364 2.77933 24.408 2.486 24.408C2.16333 24.408 1.936 24.3493 1.804 24.232C1.672 24.1293 1.606 23.9753 1.606 23.77C1.606 23.5647 1.66467 23.3593 1.782 23.154C1.914 22.9487 2.09 22.802 2.31 22.714C2.706 22.5673 3.146 22.4353 3.63 22.318C4.114 22.186 4.60533 22.0687 5.104 21.966C5.104 21.8927 5.104 21.8047 5.104 21.702C5.104 21.4967 5.14067 21.108 5.214 20.536C5.302 19.964 5.412 19.282 5.544 18.49C5.676 17.6833 5.82267 16.8473 5.984 15.982C6.14533 15.102 6.29933 14.266 6.446 13.474C6.59267 12.6673 6.72467 11.9707 6.842 11.384C6.95933 10.7827 7.04733 10.3793 7.106 10.174C6.73933 10.218 6.40933 10.2547 6.116 10.284C5.82267 10.3133 5.58067 10.328 5.39 10.328Z" fill="#4A7BDB"/>
<path d="M26.598 24.154C26.334 24.154 26.1067 24.0367 25.916 23.802C25.74 23.5673 25.652 23.1567 25.652 22.57C25.652 22.2327 25.718 21.8367 25.85 21.382C26.1433 20.458 26.444 19.468 26.752 18.412C27.0747 17.356 27.3753 16.278 27.654 15.178C27.9473 14.078 28.182 13.0147 28.358 11.988C28.534 10.9467 28.622 9.99333 28.622 9.128C28.622 8.83467 28.6073 8.54867 28.578 8.27C28.5633 7.99133 28.5267 7.72733 28.468 7.478C26.9867 8.886 25.6153 10.8 24.354 13.22C23.1073 15.6253 21.9707 18.4267 20.944 21.624C20.768 22.108 20.548 22.4453 20.284 22.636C20.02 22.8267 19.7707 22.922 19.536 22.922C19.3307 22.922 19.1327 22.8413 18.942 22.68C18.7513 22.504 18.656 22.24 18.656 21.888C18.656 21.6533 18.7147 21.3233 18.832 20.898C18.9493 20.458 19.1547 20.0547 19.448 19.688C19.6093 18.72 19.7413 17.6933 19.844 16.608C19.9613 15.5227 20.02 14.518 20.02 13.594C20.02 13.1687 19.998 12.7727 19.954 12.406C19.9247 12.0247 19.8733 11.6947 19.8 11.416C19.0373 12.2227 18.326 13.2347 17.666 14.452C17.0207 15.6547 16.4487 16.9527 15.95 18.346C15.4513 19.7247 15.0333 21.074 14.696 22.394C14.432 23.3473 14.0067 23.824 13.42 23.824C13.1853 23.824 12.9873 23.6993 12.826 23.45C12.6793 23.2007 12.606 22.8267 12.606 22.328C12.606 21.844 12.7233 21.1913 12.958 20.37C13.1927 19.5487 13.508 18.6467 13.904 17.664C14.3147 16.6813 14.7693 15.706 15.268 14.738C15.7813 13.7553 16.3093 12.8607 16.852 12.054C17.4093 11.2327 17.952 10.5727 18.48 10.074C19.008 9.57533 19.4847 9.326 19.91 9.326C20.1887 9.326 20.438 9.37733 20.658 9.48C20.878 9.58267 21.0687 9.79533 21.23 10.118C21.3913 10.426 21.5087 10.9027 21.582 11.548C21.67 12.1787 21.714 13.022 21.714 14.078C21.714 14.2687 21.714 14.4887 21.714 14.738C22.1393 13.5647 22.6307 12.428 23.188 11.328C23.76 10.2133 24.3613 9.216 24.992 8.336C25.6227 7.456 26.2533 6.75933 26.884 6.246C27.5147 5.73267 28.1087 5.476 28.666 5.476C29.2967 5.476 29.81 5.82067 30.206 6.51C30.602 7.18467 30.8 8.248 30.8 9.7C30.8 11.0787 30.69 12.4207 30.47 13.726C30.25 15.0313 29.9713 16.2633 29.634 17.422C29.3113 18.5807 28.974 19.6367 28.622 20.59C28.2847 21.5287 27.9913 22.3353 27.742 23.01C27.5807 23.4207 27.412 23.714 27.236 23.89C27.06 24.066 26.8473 24.154 26.598 24.154Z" fill="#4A7BDB"/>
</g>
<defs>
<clipPath id="clip0_15_18">
<rect width="32" height="32" rx="10" fill="white"/>
</clipPath>
</defs>
</svg>
