<svg width="15" height="15" viewBox="0 0 15 15" fill="none" xmlns="http://www.w3.org/2000/svg">
<path d="M0 0V15H15V0H0ZM9.08375 12.2438C8.83 12.2925 8.75 12.1369 8.75 12.0037V10.6319C8.75 10.165 8.58625 9.86125 8.40625 9.70625C9.52 9.5825 10.69 9.15938 10.69 7.23938C10.69 6.69313 10.4956 6.24687 10.175 5.8975C10.2269 5.77125 10.3981 5.2625 10.1256 4.57437C10.1256 4.57437 9.70625 4.44 8.75188 5.08687C8.3525 4.97437 7.925 4.92 7.5 4.9175C7.075 4.91938 6.6475 4.97438 6.24812 5.08563C5.29312 4.43875 4.87312 4.57312 4.87312 4.57312C4.60187 5.26187 4.77312 5.77 4.825 5.89688C4.505 6.24688 4.31 6.6925 4.31 7.23875C4.31 9.15375 5.47688 9.58313 6.58813 9.71C6.445 9.835 6.31562 10.055 6.27062 10.3788C5.985 10.5063 5.26187 10.7269 4.81562 9.9625C4.81562 9.9625 4.55125 9.4825 4.04875 9.44687C4.04875 9.44687 3.56125 9.44063 4.01437 9.75125C4.01437 9.75125 4.3425 9.905 4.57 10.4825C4.57 10.4825 4.85938 11.375 6.25 11.0725V12.0031C6.25 12.135 6.16938 12.29 5.92 12.2438C3.9325 11.5831 2.5 9.70875 2.5 7.5C2.5 4.73812 4.73875 2.5 7.5 2.5C10.2613 2.5 12.5 4.73812 12.5 7.5C12.5 9.70812 11.0694 11.5819 9.08375 12.2438Z" fill="#1A17A3"/>
</svg>
