<svg width="20" height="18" viewBox="0 0 20 18" fill="none" xmlns="http://www.w3.org/2000/svg">
<path d="M9.89584 17.3334L13.6667 7.33335H15.375L19.25 17.3334H17.4375L16.5833 14.7084H12.5833L11.6042 17.3334H9.89584ZM13.0417 13.25H16L14.5417 9.20835H14.5L13.0417 13.25ZM3.33334 14.8334L2.1875 13.6875L6.4375 9.43752C5.90972 8.82641 5.44097 8.21183 5.03125 7.59377C4.62153 6.97571 4.26389 6.33335 3.95834 5.66669H5.77084C6.00695 6.12502 6.26736 6.55905 6.55209 6.96877C6.83681 7.37849 7.15972 7.79863 7.52084 8.22919C8.14584 7.57641 8.66667 6.89933 9.08334 6.19794C9.5 5.49655 9.85417 4.76391 10.1458 4.00002H0.833336V2.33335H6.66667V0.666687H8.33334V2.33335H14.1667V4.00002H11.8125C11.5069 4.95835 11.1007 5.89933 10.5938 6.82294C10.0868 7.74655 9.46528 8.62502 8.72917 9.45835L10.7708 11.5209L10.1458 13.2084L7.5 10.6667L3.33334 14.8334Z" fill="#1A17A3"/>
</svg>
