<svg width="13" height="13" viewBox="0 0 13 13" fill="none" xmlns="http://www.w3.org/2000/svg">
<path d="M11.3 0.199951H1.7C0.871997 0.199951 0.199997 0.871951 0.199997 1.69995V11.3C0.199997 12.128 0.871997 12.8 1.7 12.8H11.3C12.128 12.8 12.8 12.128 12.8 11.3V1.69995C12.8 0.871951 12.128 0.199951 11.3 0.199951ZM4.1 4.99995V10.7H2.3V4.99995H4.1ZM2.3 3.34095C2.3 2.92095 2.66 2.59995 3.2 2.59995C3.74 2.59995 4.079 2.92095 4.1 3.34095C4.1 3.76095 3.764 4.09995 3.2 4.09995C2.66 4.09995 2.3 3.76095 2.3 3.34095ZM10.7 10.7H8.9C8.9 10.7 8.9 7.92195 8.9 7.69995C8.9 7.09995 8.6 6.49995 7.85 6.48795H7.826C7.1 6.48795 6.8 7.10595 6.8 7.69995C6.8 7.97295 6.8 10.7 6.8 10.7H5V4.99995H6.8V5.76795C6.8 5.76795 7.379 4.99995 8.543 4.99995C9.734 4.99995 10.7 5.81895 10.7 7.47795V10.7Z" fill="#1A17A3"/>
</svg>

