<svg width="110" height="35" viewBox="0 0 110 35" fill="none" xmlns="http://www.w3.org/2000/svg">
<path d="M0.744019 34V0.159973H6.93602V34H0.744019Z" fill="#141414"/>
<path d="M25.0406 34.48C22.5446 34.48 20.3526 33.968 18.4646 32.944C16.6086 31.92 15.1686 30.464 14.1446 28.576C13.1206 26.656 12.6086 24.384 12.6086 21.76C12.6086 19.136 13.1206 16.896 14.1446 15.04C15.2006 13.184 16.6566 11.76 18.5126 10.768C20.3686 9.77597 22.5446 9.27997 25.0406 9.27997C26.6406 9.27997 28.1926 9.53597 29.6966 10.048C31.2326 10.528 32.4806 11.232 33.4406 12.16L31.6166 16.336C30.7526 15.536 29.7766 14.944 28.6886 14.56C27.6326 14.144 26.5926 13.936 25.5686 13.936C23.4246 13.936 21.7446 14.608 20.5286 15.952C19.3446 17.296 18.7526 19.248 18.7526 21.808C18.7526 24.368 19.3446 26.336 20.5286 27.712C21.7446 29.088 23.4246 29.776 25.5686 29.776C26.5606 29.776 27.5846 29.584 28.6406 29.2C29.7286 28.816 30.7206 28.224 31.6166 27.424L33.4406 31.552C32.4486 32.48 31.1846 33.2 29.6486 33.712C28.1446 34.224 26.6086 34.48 25.0406 34.48Z" fill="#141414"/>
<path d="M47.3115 34.48C45.1995 34.48 43.3435 33.984 41.7435 32.992C40.1435 31.968 38.8955 30.512 37.9995 28.624C37.1035 26.736 36.6555 24.48 36.6555 21.856C36.6555 19.232 37.1035 16.992 37.9995 15.136C38.8955 13.248 40.1435 11.808 41.7435 10.816C43.3435 9.79197 45.1995 9.27997 47.3115 9.27997C49.3595 9.27997 51.1515 9.79197 52.6875 10.816C54.2555 11.808 55.2955 13.152 55.8075 14.848H55.2795L55.8075 9.75998H61.5675C61.4715 10.752 61.3755 11.76 61.2795 12.784C61.2155 13.808 61.1835 14.816 61.1835 15.808V34H55.2315L55.1835 29.008H55.7595C55.2475 30.672 54.2075 32 52.6395 32.992C51.0715 33.984 49.2955 34.48 47.3115 34.48ZM48.9915 29.872C50.8795 29.872 52.3995 29.216 53.5515 27.904C54.7035 26.56 55.2795 24.544 55.2795 21.856C55.2795 19.168 54.7035 17.168 53.5515 15.856C52.3995 14.544 50.8795 13.888 48.9915 13.888C47.1035 13.888 45.5835 14.544 44.4315 15.856C43.2795 17.168 42.7035 19.168 42.7035 21.856C42.7035 24.544 43.2635 26.56 44.3835 27.904C45.5355 29.216 47.0715 29.872 48.9915 29.872Z" fill="#141414"/>
<path d="M67.6691 34V15.952C67.6691 14.928 67.6371 13.888 67.5731 12.832C67.5411 11.776 67.4611 10.752 67.3331 9.75998H73.1411L73.8131 16.384H72.8531C73.1731 14.784 73.7011 13.456 74.4371 12.4C75.2051 11.344 76.1331 10.56 77.2211 10.048C78.3091 9.53597 79.4931 9.27997 80.7731 9.27997C81.3491 9.27997 81.8131 9.31197 82.1651 9.37597C82.5171 9.40797 82.8691 9.48797 83.2211 9.61597L83.1731 14.896C82.5651 14.64 82.0371 14.48 81.5891 14.416C81.1731 14.352 80.6451 14.32 80.0051 14.32C78.6291 14.32 77.4611 14.608 76.5011 15.184C75.5731 15.76 74.8691 16.56 74.3891 17.584C73.9411 18.608 73.7171 19.776 73.7171 21.088V34H67.6691Z" fill="#141414"/>
<path d="M97.1299 34.48C94.6339 34.48 92.4739 33.968 90.6499 32.944C88.8259 31.92 87.4019 30.464 86.3779 28.576C85.3859 26.688 84.8899 24.448 84.8899 21.856C84.8899 19.264 85.3859 17.04 86.3779 15.184C87.4019 13.296 88.8259 11.84 90.6499 10.816C92.4739 9.79197 94.6339 9.27997 97.1299 9.27997C99.6259 9.27997 101.786 9.79197 103.61 10.816C105.466 11.84 106.89 13.296 107.882 15.184C108.906 17.04 109.418 19.264 109.418 21.856C109.418 24.448 108.906 26.688 107.882 28.576C106.89 30.464 105.466 31.92 103.61 32.944C101.786 33.968 99.6259 34.48 97.1299 34.48ZM97.1299 29.872C99.0179 29.872 100.522 29.216 101.642 27.904C102.762 26.56 103.322 24.544 103.322 21.856C103.322 19.168 102.762 17.168 101.642 15.856C100.522 14.544 99.0179 13.888 97.1299 13.888C95.2419 13.888 93.7379 14.544 92.6179 15.856C91.4979 17.168 90.9379 19.168 90.9379 21.856C90.9379 24.544 91.4979 26.56 92.6179 27.904C93.7379 29.216 95.2419 29.872 97.1299 29.872Z" fill="#141414"/>
</svg>
