<svg width="15" height="15" viewBox="0 0 15 15" fill="none" xmlns="http://www.w3.org/2000/svg">
<path d="M14.0625 15C12.4514 15 10.809 14.6111 9.13542 13.8333C7.46181 13.0556 5.90972 11.9514 4.47917 10.5208C3.04861 9.09028 1.94444 7.53819 1.16667 5.86458C0.388889 4.19097 0 2.54861 0 0.9375C0 0.669639 0.0892846 0.446424 0.267854 0.267854C0.446424 0.0892846 0.669639 0 0.9375 0H3.85417C4.04861 0 4.21528 0.0694444 4.35417 0.208333C4.49306 0.347222 4.59028 0.520833 4.64583 0.729167L5.20685 3.34669C5.23562 3.54612 5.23264 3.72569 5.19792 3.88542C5.16319 4.04514 5.08869 4.18213 4.9744 4.29638L2.89583 6.39583C3.25694 7.00694 3.63889 7.57639 4.04167 8.10417C4.44444 8.63194 4.88889 9.13194 5.375 9.60417C5.88889 10.1319 6.43056 10.6146 7 11.0521C7.56944 11.4896 8.16667 11.875 8.79167 12.2083L10.7708 10.1667C10.9097 10.0139 11.0705 9.90972 11.2531 9.85417C11.4358 9.79861 11.6153 9.78472 11.7917 9.8125L14.2708 10.3542C14.4792 10.4097 14.6528 10.5211 14.7917 10.6884C14.9306 10.8557 15 11.0429 15 11.25V14.0625C15 14.3304 14.9107 14.5536 14.7321 14.7321C14.5536 14.9107 14.3304 15 14.0625 15ZM2.27083 5.25L3.95833 3.54167L3.47917 1.25H1.25C1.27778 1.83333 1.37153 2.44792 1.53125 3.09375C1.69097 3.73958 1.9375 4.45833 2.27083 5.25ZM9.95833 12.8125C10.5278 13.0764 11.1458 13.2917 11.8125 13.4583C12.4792 13.625 13.125 13.7222 13.75 13.75V11.5208L11.6042 11.0833L9.95833 12.8125Z" fill="#1A17A3"/>
</svg>
