<svg width="522" height="234" viewBox="0 0 522 234" fill="none" xmlns="http://www.w3.org/2000/svg">
<path d="M2.01172 56.8281C1.75391 56.7812 1.56641 56.6523 1.44922 56.4414C1.33203 56.2305 1.27344 55.9961 1.27344 55.7383C1.27344 55.5273 1.32031 55.3398 1.41406 55.1758L5.73828 46.9141C5.76172 46.8203 5.79688 46.457 5.84375 45.8242C5.91406 45.1914 5.98438 44.4062 6.05469 43.4688C6.125 42.5078 6.19531 41.4414 6.26562 40.2695C6.35938 39.0977 6.45312 37.9375 6.54688 36.7891C6.64062 35.6406 6.72266 34.5508 6.79297 33.5195C6.88672 32.4648 6.96875 31.5859 7.03906 30.8828C7.0625 30.6016 7.09766 30.1797 7.14453 29.6172C7.19141 29.0312 7.23828 28.3633 7.28516 27.6133C7.33203 26.8633 7.39062 26.0547 7.46094 25.1875C7.53125 24.3203 7.60156 23.4531 7.67188 22.5859L8.16406 15.2383C7.53125 15.3789 6.875 15.5312 6.19531 15.6953C5.51562 15.8359 4.84766 15.9648 4.19141 16.082C3.55859 16.1992 2.94922 16.3047 2.36328 16.3984C1.80078 16.4688 1.30859 16.5039 0.886719 16.5039C0.628906 16.5039 0.429688 16.3867 0.289062 16.1523C0.171875 15.918 0.113281 15.6719 0.113281 15.4141C0.113281 15.1094 0.183594 14.8867 0.324219 14.7461L9.25391 6.41406C9.98047 5.75781 10.6953 5.23047 11.3984 4.83203C12.125 4.41016 12.9922 4.08203 14 3.84766C15.0078 3.61328 16.2383 3.46094 17.6914 3.39062C19.168 3.29688 21.0312 3.25 23.2812 3.25C27.125 3.25 30.5352 3.64844 33.5117 4.44531C36.4883 5.24219 39.0078 6.37891 41.0703 7.85547C42.5938 8.91016 43.9531 10.0117 45.1484 11.1602C46.3438 12.3086 47.3516 13.5859 48.1719 14.9922C48.9922 16.375 49.6133 17.9102 50.0352 19.5977C50.457 21.2617 50.668 23.1484 50.668 25.2578C50.668 29.2656 50.0703 32.8281 48.875 35.9453C47.6797 39.0625 46.0508 41.793 43.9883 44.1367C41.9258 46.457 39.5117 48.4258 36.7461 50.043C34.0039 51.6602 31.0625 52.9727 27.9219 53.9805C24.8047 54.9883 21.5703 55.7148 18.2188 56.1602C14.8906 56.6055 11.6211 56.8281 8.41016 56.8281H2.01172ZM22.4375 14.5L22.0156 18.7539C21.875 20.2305 21.7227 21.8125 21.5586 23.5C21.418 25.1641 21.2773 26.8633 21.1367 28.5977C20.9961 30.3086 20.8555 32.0078 20.7148 33.6953C20.5742 35.3594 20.4453 36.918 20.3281 38.3711C20.2109 39.8242 20.1055 41.125 20.0117 42.2734C19.918 43.4219 19.8359 44.3359 19.7656 45.0156L19.6602 46.0703C22.4961 46.0703 24.8867 45.6133 26.832 44.6992C28.8008 43.7852 30.3945 42.5312 31.6133 40.9375C32.832 39.3203 33.7109 37.4336 34.25 35.2773C34.8125 33.1211 35.0938 30.8008 35.0938 28.3164C35.0938 26.5352 34.8477 24.8242 34.3555 23.1836C33.8633 21.5195 33.1484 19.9375 32.2109 18.4375C31.2734 16.9375 30.125 15.8125 28.7656 15.0625C27.4062 14.3125 25.8711 13.9375 24.1602 13.9375C23.8789 13.9375 23.5742 14.0078 23.2461 14.1484C22.918 14.2656 22.6484 14.3828 22.4375 14.5Z" fill="#141414"/>
<path d="M75.4531 15.7656C77.6797 15.7656 79.6953 16.1875 81.5 17.0312C83.3281 17.8516 84.8867 18.9297 86.1758 20.2656C87.4883 21.5781 88.4961 23.0547 89.1992 24.6953C89.9023 26.3359 90.2539 27.9766 90.2539 29.6172C90.2539 31.0703 89.8086 32.5352 88.918 34.0117C88.0273 35.4648 86.7734 36.7773 85.1562 37.9492C83.5625 39.1211 81.6406 40.0703 79.3906 40.7969C77.1406 41.5234 74.668 41.8867 71.9727 41.8867C70.5664 41.8867 69.0898 41.7461 67.543 41.4648C67.6367 42.4727 67.9297 43.3398 68.4219 44.0664C68.9141 44.793 69.5352 45.3906 70.2852 45.8594C71.0352 46.3281 71.8789 46.6797 72.8164 46.9141C73.7773 47.125 74.7617 47.2305 75.7695 47.2305C76.8945 47.2305 77.9727 47.1367 79.0039 46.9492C80.0586 46.7383 81.0664 46.4688 82.0273 46.1406C82.9883 45.8125 83.9141 45.4492 84.8047 45.0508C85.6953 44.6523 86.5391 44.2539 87.3359 43.8555C87.5469 43.8086 87.7227 43.7734 87.8633 43.75C88.0273 43.7031 88.1797 43.6797 88.3203 43.6797C88.3203 43.6797 88.3086 43.8672 88.2852 44.2422C88.2852 44.6172 88.2852 45.1445 88.2852 45.8242C88.2852 46.5039 88.2734 47.3242 88.25 48.2852C88.25 49.2461 88.2383 50.3125 88.2148 51.4844C88.2852 51.6016 88.332 51.7188 88.3555 51.8359C88.3789 51.9531 88.3906 52.0469 88.3906 52.1172C88.3906 52.3984 88.1328 52.7031 87.6172 53.0312C87.1016 53.3594 86.4219 53.6992 85.5781 54.0508C84.7578 54.4023 83.8086 54.7422 82.7305 55.0703C81.6758 55.3984 80.5977 55.6914 79.4961 55.9492C78.3945 56.2305 77.3281 56.4414 76.2969 56.582C75.2656 56.7461 74.3633 56.8281 73.5898 56.8281C71.0586 56.8281 68.5977 56.3828 66.207 55.4922C63.8398 54.625 61.7305 53.3711 59.8789 51.7305C58.0508 50.0898 56.5859 48.0977 55.4844 45.7539C54.3828 43.4102 53.832 40.7734 53.832 37.8438C53.832 34.7734 54.3594 31.9023 55.4141 29.2305C56.4688 26.5352 57.9453 24.1914 59.8438 22.1992C61.7656 20.207 64.0508 18.6367 66.6992 17.4883C69.3477 16.3398 72.2656 15.7656 75.4531 15.7656ZM75.0312 25.1172C74.0703 25.1172 73.1797 25.3281 72.3594 25.75C71.5625 26.1484 70.8242 26.7344 70.1445 27.5078C69.4883 28.2578 68.9141 29.1719 68.4219 30.25C67.9297 31.3047 67.5312 32.4766 67.2266 33.7656C69.6406 33.3438 71.6445 32.8984 73.2383 32.4297C74.832 31.9609 76.1094 31.4922 77.0703 31.0234C78.0312 30.5312 78.7109 30.0508 79.1094 29.582C79.5078 29.0898 79.707 28.6211 79.707 28.1758C79.707 27.7539 79.543 27.3555 79.2148 26.9805C78.9102 26.6055 78.5234 26.2773 78.0547 25.9961C77.5859 25.7148 77.0703 25.5039 76.5078 25.3633C75.9688 25.1992 75.4766 25.1172 75.0312 25.1172Z" fill="#141414"/>
<path d="M94.8242 45.2969C94.8242 45.2734 94.8125 45.2617 94.7891 45.2617C94.7891 45.2383 94.7891 45.2148 94.7891 45.1914C94.7891 44.8867 94.9531 44.7344 95.2812 44.7344C95.4922 44.7344 95.6797 44.8164 95.8438 44.9805C96.7812 45.8711 97.8477 46.5977 99.043 47.1602C100.262 47.7227 101.574 48.0039 102.98 48.0039C103.355 48.0039 103.789 47.9688 104.281 47.8984C104.773 47.8047 105.242 47.6641 105.688 47.4766C106.133 47.2891 106.496 47.043 106.777 46.7383C107.082 46.4102 107.234 46.0117 107.234 45.543C107.234 45.0273 107.105 44.5586 106.848 44.1367C106.59 43.6914 106.25 43.3281 105.828 43.0469C105.594 42.8828 105.184 42.6016 104.598 42.2031C104.012 41.7812 103.379 41.3359 102.699 40.8672C102.043 40.3984 101.41 39.9531 100.801 39.5312C100.215 39.1094 99.8047 38.8047 99.5703 38.6172C98.5156 37.8203 97.6719 37.0117 97.0391 36.1914C96.4297 35.3711 95.9609 34.5273 95.6328 33.6602C95.3047 32.7695 95.0938 31.8438 95 30.8828C94.9062 29.9219 94.8594 28.9023 94.8594 27.8242C94.8594 26.1836 95.293 24.6367 96.1602 23.1836C97.0273 21.7305 98.1641 20.4531 99.5703 19.3516C101 18.25 102.617 17.3828 104.422 16.75C106.227 16.0938 108.066 15.7656 109.941 15.7656C111.488 15.7656 113.012 16 114.512 16.4688C116.012 16.9375 117.406 17.7344 118.695 18.8594C118.812 20.3359 118.895 21.7891 118.941 23.2188C118.988 24.6484 119.059 26.1484 119.152 27.7188C119.152 28.0234 119.082 28.2344 118.941 28.3516C118.801 28.4453 118.637 28.4922 118.449 28.4922C118.285 28.4922 118.145 28.4336 118.027 28.3164C117.488 27.8008 116.938 27.2969 116.375 26.8047C115.812 26.2891 115.215 25.8438 114.582 25.4688C113.973 25.0703 113.316 24.7539 112.613 24.5195C111.91 24.2617 111.16 24.1328 110.363 24.1328C109.871 24.1328 109.379 24.1797 108.887 24.2734C108.395 24.3438 107.949 24.4961 107.551 24.7305C107.152 24.9414 106.824 25.2344 106.566 25.6094C106.332 25.9844 106.215 26.4648 106.215 27.0508C106.215 27.7305 106.297 28.3164 106.461 28.8086C106.625 29.3008 107.012 29.7812 107.621 30.25L114.16 34.6797C115.355 35.5 116.316 36.3086 117.043 37.1055C117.793 37.8789 118.379 38.6523 118.801 39.4258C119.223 40.1992 119.504 40.9727 119.645 41.7461C119.809 42.4961 119.891 43.2461 119.891 43.9961C119.891 46.1055 119.398 47.9688 118.414 49.5859C117.453 51.1797 116.199 52.5156 114.652 53.5938C113.105 54.6484 111.348 55.4453 109.379 55.9844C107.434 56.5469 105.477 56.8281 103.508 56.8281C102.008 56.8281 100.555 56.6641 99.1484 56.3359C97.7656 56.0312 96.4766 55.5508 95.2812 54.8945L94.8242 45.2969Z" fill="#141414"/>
<path d="M145.906 15.7656C148.133 15.7656 150.148 16.1875 151.953 17.0312C153.781 17.8516 155.34 18.9297 156.629 20.2656C157.941 21.5781 158.949 23.0547 159.652 24.6953C160.355 26.3359 160.707 27.9766 160.707 29.6172C160.707 31.0703 160.262 32.5352 159.371 34.0117C158.48 35.4648 157.227 36.7773 155.609 37.9492C154.016 39.1211 152.094 40.0703 149.844 40.7969C147.594 41.5234 145.121 41.8867 142.426 41.8867C141.02 41.8867 139.543 41.7461 137.996 41.4648C138.09 42.4727 138.383 43.3398 138.875 44.0664C139.367 44.793 139.988 45.3906 140.738 45.8594C141.488 46.3281 142.332 46.6797 143.27 46.9141C144.23 47.125 145.215 47.2305 146.223 47.2305C147.348 47.2305 148.426 47.1367 149.457 46.9492C150.512 46.7383 151.52 46.4688 152.48 46.1406C153.441 45.8125 154.367 45.4492 155.258 45.0508C156.148 44.6523 156.992 44.2539 157.789 43.8555C158 43.8086 158.176 43.7734 158.316 43.75C158.48 43.7031 158.633 43.6797 158.773 43.6797C158.773 43.6797 158.762 43.8672 158.738 44.2422C158.738 44.6172 158.738 45.1445 158.738 45.8242C158.738 46.5039 158.727 47.3242 158.703 48.2852C158.703 49.2461 158.691 50.3125 158.668 51.4844C158.738 51.6016 158.785 51.7188 158.809 51.8359C158.832 51.9531 158.844 52.0469 158.844 52.1172C158.844 52.3984 158.586 52.7031 158.07 53.0312C157.555 53.3594 156.875 53.6992 156.031 54.0508C155.211 54.4023 154.262 54.7422 153.184 55.0703C152.129 55.3984 151.051 55.6914 149.949 55.9492C148.848 56.2305 147.781 56.4414 146.75 56.582C145.719 56.7461 144.816 56.8281 144.043 56.8281C141.512 56.8281 139.051 56.3828 136.66 55.4922C134.293 54.625 132.184 53.3711 130.332 51.7305C128.504 50.0898 127.039 48.0977 125.938 45.7539C124.836 43.4102 124.285 40.7734 124.285 37.8438C124.285 34.7734 124.812 31.9023 125.867 29.2305C126.922 26.5352 128.398 24.1914 130.297 22.1992C132.219 20.207 134.504 18.6367 137.152 17.4883C139.801 16.3398 142.719 15.7656 145.906 15.7656ZM145.484 25.1172C144.523 25.1172 143.633 25.3281 142.812 25.75C142.016 26.1484 141.277 26.7344 140.598 27.5078C139.941 28.2578 139.367 29.1719 138.875 30.25C138.383 31.3047 137.984 32.4766 137.68 33.7656C140.094 33.3438 142.098 32.8984 143.691 32.4297C145.285 31.9609 146.562 31.4922 147.523 31.0234C148.484 30.5312 149.164 30.0508 149.562 29.582C149.961 29.0898 150.16 28.6211 150.16 28.1758C150.16 27.7539 149.996 27.3555 149.668 26.9805C149.363 26.6055 148.977 26.2773 148.508 25.9961C148.039 25.7148 147.523 25.5039 146.961 25.3633C146.422 25.1992 145.93 25.1172 145.484 25.1172Z" fill="#141414"/>
<path d="M194.281 56.2656C194.023 56.3359 193.684 56.4414 193.262 56.582C192.84 56.7461 192.43 56.8281 192.031 56.8281C191.703 56.8281 191.41 56.7461 191.152 56.582C190.918 56.418 190.801 56.1367 190.801 55.7383V55.5273C190.941 54.2617 191.059 53.1953 191.152 52.3281C191.246 51.4375 191.328 50.6406 191.398 49.9375C191.492 49.2109 191.562 48.4961 191.609 47.793C191.68 47.0664 191.762 46.2344 191.855 45.2969C191.949 44.3359 192.055 43.2109 192.172 41.9219C192.312 40.6094 192.477 38.9805 192.664 37.0352C192.781 35.8398 192.887 34.6211 192.98 33.3789C193.074 32.1367 193.121 30.9883 193.121 29.9336C193.121 29.2305 193.062 28.5859 192.945 28C192.852 27.3906 192.664 26.875 192.383 26.4531C192.125 26.0078 191.762 25.668 191.293 25.4336C190.824 25.1992 190.227 25.082 189.5 25.082C188.961 25.082 188.211 25.1992 187.25 25.4336C186.312 25.668 185.375 26.0547 184.438 26.5938C183.5 27.1328 182.668 27.8477 181.941 28.7383C181.215 29.6055 180.805 30.6836 180.711 31.9727C180.57 33.707 180.441 35.1953 180.324 36.4375C180.207 37.6562 180.102 38.6992 180.008 39.5664C179.914 40.4102 179.832 41.1016 179.762 41.6406C179.715 42.1797 179.68 42.6367 179.656 43.0117C179.633 43.1055 179.598 43.3633 179.551 43.7852C179.504 44.207 179.445 44.7109 179.375 45.2969C179.328 45.8828 179.27 46.5039 179.199 47.1602C179.152 47.8164 179.094 48.4375 179.023 49.0234C178.977 49.6094 178.93 50.1133 178.883 50.5352C178.859 50.957 178.848 51.2148 178.848 51.3086C178.848 51.4961 178.848 51.6602 178.848 51.8008C178.871 51.918 178.883 52.0352 178.883 52.1523C178.883 52.3398 178.789 52.5039 178.602 52.6445C178.438 52.7617 178.051 52.9023 177.441 53.0664L168.125 56.2656C167.867 56.3594 167.527 56.4766 167.105 56.6172C166.684 56.7578 166.273 56.8281 165.875 56.8281C165.547 56.8281 165.254 56.7461 164.996 56.582C164.762 56.418 164.645 56.1367 164.645 55.7383L167.844 19.8086C167.914 19.0352 167.996 18.5078 168.09 18.2266C168.207 17.9219 168.477 17.7227 168.898 17.6289C171.031 17.207 173.223 16.7852 175.473 16.3633C177.723 15.918 179.914 15.3555 182.047 14.6758C182.234 14.6758 182.34 14.7109 182.363 14.7812C182.41 14.8281 182.434 14.9102 182.434 15.0273C182.434 15.0742 182.422 15.1445 182.398 15.2383C182.398 15.332 182.363 15.543 182.293 15.8711C182.246 16.1992 182.164 16.7031 182.047 17.3828C181.953 18.0391 181.812 18.9648 181.625 20.1602C183.242 19.2227 184.754 18.4727 186.16 17.9102C187.59 17.3242 188.926 16.8789 190.168 16.5742C191.434 16.2461 192.617 16.0352 193.719 15.9414C194.82 15.8242 195.852 15.7656 196.812 15.7656C200.117 15.7656 202.52 16.7734 204.02 18.7891C205.52 20.7812 206.27 23.7812 206.27 27.7891C206.27 28.3516 206.258 28.9375 206.234 29.5469C206.211 30.1328 206.164 30.7422 206.094 31.375L204.477 46.4922C204.359 47.4766 204.289 48.3906 204.266 49.2344C204.242 50.0547 204.23 51.0156 204.23 52.1172C204.23 52.3047 204.23 52.4688 204.23 52.6094C204.254 52.7266 204.266 52.832 204.266 52.9258C204.266 53.1367 204.172 53.3008 203.984 53.418C203.82 53.5352 203.434 53.6875 202.824 53.875L194.281 56.2656Z" fill="#141414"/>
<path d="M236.926 16.1172C237.02 15.8828 237.195 15.7656 237.453 15.7656C237.5 15.7656 237.547 15.7773 237.594 15.8008C237.641 15.8008 237.688 15.8008 237.734 15.8008C239.492 16.4805 241.297 17.043 243.148 17.4883C245 17.9102 246.84 18.3203 248.668 18.7188C249.113 18.8125 249.336 19.0703 249.336 19.4922C249.336 19.7969 249.195 20.2656 248.914 20.8984L234.43 51.6953C234.242 52.1172 234.078 52.457 233.938 52.7148C233.797 52.9727 233.656 53.1836 233.516 53.3477C233.375 53.5117 233.223 53.6289 233.059 53.6992C232.895 53.7695 232.695 53.8281 232.461 53.875C230.68 54.2266 228.875 54.625 227.047 55.0703C225.219 55.5391 223.32 56.1133 221.352 56.793C221.305 56.793 221.27 56.793 221.246 56.793C221.223 56.8164 221.199 56.8281 221.176 56.8281H220.93C220.812 56.8281 220.719 56.7812 220.648 56.6875C220.578 56.6172 220.531 56.5469 220.508 56.4766C220.156 55.4688 219.746 54.168 219.277 52.5742C218.832 50.9805 218.34 49.1992 217.801 47.2305C217.262 45.2617 216.699 43.1641 216.113 40.9375C215.527 38.7109 214.93 36.4492 214.32 34.1523C213.711 31.8555 213.102 29.582 212.492 27.332C211.906 25.0586 211.332 22.9141 210.77 20.8984C210.559 20.1719 210.453 19.6562 210.453 19.3516C210.453 19.0234 210.641 18.8125 211.016 18.7188C212.844 18.3203 214.742 17.9102 216.711 17.4883C218.68 17.043 220.543 16.4805 222.301 15.8008C222.371 15.7773 222.477 15.7656 222.617 15.7656C222.922 15.7656 223.086 15.8828 223.109 16.1172L227.75 39.7422C227.867 39.4609 228.066 38.957 228.348 38.2305C228.629 37.4805 228.969 36.5898 229.367 35.5586C229.766 34.5273 230.199 33.3906 230.668 32.1484C231.16 30.9062 231.652 29.6406 232.145 28.3516C232.66 27.0625 233.164 25.7852 233.656 24.5195C234.148 23.2305 234.605 22.0352 235.027 20.9336C235.473 19.832 235.859 18.8594 236.188 18.0156C236.516 17.1719 236.762 16.5391 236.926 16.1172Z" fill="#141414"/>
<path d="M269.305 56.8281C266 56.8281 263.094 56.2891 260.586 55.2109C258.102 54.1328 256.016 52.7031 254.328 50.9219C252.641 49.1172 251.375 47.0547 250.531 44.7344C249.688 42.3906 249.266 39.9648 249.266 37.457C249.266 34.9492 249.676 32.5703 250.496 30.3203C251.316 28.0469 252.465 26.0195 253.941 24.2383C255.418 22.4336 257.188 20.9336 259.25 19.7383C261.312 18.5195 263.586 17.6992 266.07 17.2773C266.445 17.2539 266.633 17.1719 266.633 17.0312C266.633 16.7734 266.598 16.5391 266.527 16.3281C266.48 16.0938 266.457 15.8945 266.457 15.7305C266.457 15.4727 266.504 15.2969 266.598 15.2031C266.691 15.1094 266.797 15.0625 266.914 15.0625C271.391 15.0625 275.199 15.5781 278.34 16.6094C281.48 17.6172 284.035 19 286.004 20.7578C287.973 22.5156 289.402 24.5898 290.293 26.9805C291.184 29.3711 291.629 31.9375 291.629 34.6797C291.629 38.1719 291.043 41.2891 289.871 44.0312C288.699 46.7734 287.094 49.0938 285.055 50.9922C283.039 52.8906 280.672 54.332 277.953 55.3164C275.258 56.3242 272.375 56.8281 269.305 56.8281ZM262.801 37.0703C262.801 38.3359 262.93 39.5898 263.188 40.832C263.469 42.0742 263.914 43.1992 264.523 44.207C265.156 45.2148 265.977 46.0352 266.984 46.668C267.992 47.2773 269.246 47.582 270.746 47.582C271.824 47.5352 272.762 47.3008 273.559 46.8789C274.379 46.4336 275.082 45.8711 275.668 45.1914C276.254 44.4883 276.734 43.7031 277.109 42.8359C277.508 41.9688 277.812 41.0781 278.023 40.1641C278.258 39.2266 278.422 38.3125 278.516 37.4219C278.609 36.5312 278.656 35.7227 278.656 34.9961C278.656 33.7773 278.469 32.582 278.094 31.4102C277.742 30.2383 277.215 29.207 276.512 28.3164C275.809 27.4258 274.93 26.7109 273.875 26.1719C272.844 25.6094 271.648 25.3281 270.289 25.3281C268.883 25.3281 267.699 25.75 266.738 26.5938C265.777 27.4141 265.004 28.4336 264.418 29.6523C263.855 30.8711 263.445 32.1602 263.188 33.5195C262.93 34.8555 262.801 36.0391 262.801 37.0703Z" fill="#141414"/>
<path d="M298.59 25.2578C298.871 22.0469 299.094 18.8711 299.258 15.7305C299.445 12.5898 299.645 9.36719 299.855 6.0625C299.902 5.28906 299.973 4.76172 300.066 4.48047C300.184 4.17578 300.453 3.97656 300.875 3.88281C303.055 3.48438 305.234 3.08594 307.414 2.6875C309.617 2.26562 311.82 1.71484 314.023 1.03516C314.094 1.01172 314.199 1 314.34 1C314.598 1 314.727 1.11719 314.727 1.35156L310.156 51.5547V52.1523C310.156 52.3633 310.074 52.5391 309.91 52.6797C309.746 52.7969 309.359 52.9375 308.75 53.1016L299.539 56.4766C299.281 56.5938 298.941 56.7109 298.52 56.8281C298.098 56.9688 297.688 57.0391 297.289 57.0391C296.961 57.0391 296.668 56.957 296.41 56.793C296.176 56.6289 296.059 56.3477 296.059 55.9492V55.7383C296.246 53.3711 296.422 51.0625 296.586 48.8125C296.773 46.5391 296.961 44.1953 297.148 41.7812C297.359 39.3672 297.582 36.8125 297.816 34.1172C298.051 31.4219 298.309 28.4688 298.59 25.2578Z" fill="#141414"/>
<path d="M343.871 16.1172C343.965 15.8828 344.141 15.7656 344.398 15.7656C344.445 15.7656 344.492 15.7773 344.539 15.8008C344.586 15.8008 344.633 15.8008 344.68 15.8008C346.438 16.4805 348.242 17.043 350.094 17.4883C351.945 17.9102 353.785 18.3203 355.613 18.7188C356.059 18.8125 356.281 19.0703 356.281 19.4922C356.281 19.7969 356.141 20.2656 355.859 20.8984L341.375 51.6953C341.188 52.1172 341.023 52.457 340.883 52.7148C340.742 52.9727 340.602 53.1836 340.461 53.3477C340.32 53.5117 340.168 53.6289 340.004 53.6992C339.84 53.7695 339.641 53.8281 339.406 53.875C337.625 54.2266 335.82 54.625 333.992 55.0703C332.164 55.5391 330.266 56.1133 328.297 56.793C328.25 56.793 328.215 56.793 328.191 56.793C328.168 56.8164 328.145 56.8281 328.121 56.8281H327.875C327.758 56.8281 327.664 56.7812 327.594 56.6875C327.523 56.6172 327.477 56.5469 327.453 56.4766C327.102 55.4688 326.691 54.168 326.223 52.5742C325.777 50.9805 325.285 49.1992 324.746 47.2305C324.207 45.2617 323.645 43.1641 323.059 40.9375C322.473 38.7109 321.875 36.4492 321.266 34.1523C320.656 31.8555 320.047 29.582 319.438 27.332C318.852 25.0586 318.277 22.9141 317.715 20.8984C317.504 20.1719 317.398 19.6562 317.398 19.3516C317.398 19.0234 317.586 18.8125 317.961 18.7188C319.789 18.3203 321.688 17.9102 323.656 17.4883C325.625 17.043 327.488 16.4805 329.246 15.8008C329.316 15.7773 329.422 15.7656 329.562 15.7656C329.867 15.7656 330.031 15.8828 330.055 16.1172L334.695 39.7422C334.812 39.4609 335.012 38.957 335.293 38.2305C335.574 37.4805 335.914 36.5898 336.312 35.5586C336.711 34.5273 337.145 33.3906 337.613 32.1484C338.105 30.9062 338.598 29.6406 339.09 28.3516C339.605 27.0625 340.109 25.7852 340.602 24.5195C341.094 23.2305 341.551 22.0352 341.973 20.9336C342.418 19.832 342.805 18.8594 343.133 18.0156C343.461 17.1719 343.707 16.5391 343.871 16.1172Z" fill="#141414"/>
<path d="M377.938 15.7656C380.164 15.7656 382.18 16.1875 383.984 17.0312C385.812 17.8516 387.371 18.9297 388.66 20.2656C389.973 21.5781 390.98 23.0547 391.684 24.6953C392.387 26.3359 392.738 27.9766 392.738 29.6172C392.738 31.0703 392.293 32.5352 391.402 34.0117C390.512 35.4648 389.258 36.7773 387.641 37.9492C386.047 39.1211 384.125 40.0703 381.875 40.7969C379.625 41.5234 377.152 41.8867 374.457 41.8867C373.051 41.8867 371.574 41.7461 370.027 41.4648C370.121 42.4727 370.414 43.3398 370.906 44.0664C371.398 44.793 372.02 45.3906 372.77 45.8594C373.52 46.3281 374.363 46.6797 375.301 46.9141C376.262 47.125 377.246 47.2305 378.254 47.2305C379.379 47.2305 380.457 47.1367 381.488 46.9492C382.543 46.7383 383.551 46.4688 384.512 46.1406C385.473 45.8125 386.398 45.4492 387.289 45.0508C388.18 44.6523 389.023 44.2539 389.82 43.8555C390.031 43.8086 390.207 43.7734 390.348 43.75C390.512 43.7031 390.664 43.6797 390.805 43.6797C390.805 43.6797 390.793 43.8672 390.77 44.2422C390.77 44.6172 390.77 45.1445 390.77 45.8242C390.77 46.5039 390.758 47.3242 390.734 48.2852C390.734 49.2461 390.723 50.3125 390.699 51.4844C390.77 51.6016 390.816 51.7188 390.84 51.8359C390.863 51.9531 390.875 52.0469 390.875 52.1172C390.875 52.3984 390.617 52.7031 390.102 53.0312C389.586 53.3594 388.906 53.6992 388.062 54.0508C387.242 54.4023 386.293 54.7422 385.215 55.0703C384.16 55.3984 383.082 55.6914 381.98 55.9492C380.879 56.2305 379.812 56.4414 378.781 56.582C377.75 56.7461 376.848 56.8281 376.074 56.8281C373.543 56.8281 371.082 56.3828 368.691 55.4922C366.324 54.625 364.215 53.3711 362.363 51.7305C360.535 50.0898 359.07 48.0977 357.969 45.7539C356.867 43.4102 356.316 40.7734 356.316 37.8438C356.316 34.7734 356.844 31.9023 357.898 29.2305C358.953 26.5352 360.43 24.1914 362.328 22.1992C364.25 20.207 366.535 18.6367 369.184 17.4883C371.832 16.3398 374.75 15.7656 377.938 15.7656ZM377.516 25.1172C376.555 25.1172 375.664 25.3281 374.844 25.75C374.047 26.1484 373.309 26.7344 372.629 27.5078C371.973 28.2578 371.398 29.1719 370.906 30.25C370.414 31.3047 370.016 32.4766 369.711 33.7656C372.125 33.3438 374.129 32.8984 375.723 32.4297C377.316 31.9609 378.594 31.4922 379.555 31.0234C380.516 30.5312 381.195 30.0508 381.594 29.582C381.992 29.0898 382.191 28.6211 382.191 28.1758C382.191 27.7539 382.027 27.3555 381.699 26.9805C381.395 26.6055 381.008 26.2773 380.539 25.9961C380.07 25.7148 379.555 25.5039 378.992 25.3633C378.453 25.1992 377.961 25.1172 377.516 25.1172Z" fill="#141414"/>
<path d="M423.746 34.9961C423.816 34.2461 423.887 33.4609 423.957 32.6406C424.051 31.8203 424.156 30.9648 424.273 30.0742C423.734 28.668 422.973 27.5312 421.988 26.6641C421.004 25.7734 419.773 25.3281 418.297 25.3281C416.844 25.3281 415.613 25.75 414.605 26.5938C413.598 27.4141 412.789 28.4336 412.18 29.6523C411.57 30.8711 411.125 32.1602 410.844 33.5195C410.586 34.8555 410.457 36.0391 410.457 37.0703C410.457 38.3359 410.527 39.5898 410.668 40.832C410.832 42.0742 411.078 43.1992 411.406 44.207C411.758 45.2148 412.215 46.0352 412.777 46.668C413.34 47.2773 414.043 47.582 414.887 47.582C416.949 47.5117 418.625 47.043 419.914 46.1758C421.203 45.3086 422.234 44.2539 423.008 43.0117L423.746 34.9961ZM436.016 51.4492C436.016 51.4961 436.004 51.5547 435.98 51.625C435.98 51.6719 435.98 51.7188 435.98 51.7656C435.98 51.8828 435.98 51.9766 435.98 52.0469C436.004 52.1172 436.016 52.1875 436.016 52.2578C436.016 52.4688 435.934 52.6445 435.77 52.7852C435.629 52.9023 435.242 53.043 434.609 53.207L425.188 56.2656C424.93 56.3594 424.59 56.4766 424.168 56.6172C423.746 56.7578 423.336 56.8281 422.938 56.8281C422.609 56.8281 422.316 56.7461 422.059 56.582C421.824 56.418 421.707 56.1133 421.707 55.668C421.707 55.2461 421.707 54.9062 421.707 54.6484C421.73 54.3906 421.742 54.1562 421.742 53.9453C421.766 53.7109 421.789 53.4648 421.812 53.207C421.859 52.9492 421.906 52.6094 421.953 52.1875C420.195 53.5938 418.379 54.7188 416.504 55.5625C414.652 56.4062 412.695 56.8281 410.633 56.8281C408.383 56.8281 406.379 56.2891 404.621 55.2109C402.887 54.1562 401.422 52.7383 400.227 50.957C399.031 49.1523 398.117 47.1016 397.484 44.8047C396.875 42.4844 396.57 40.0703 396.57 37.5625C396.57 34.3047 397.098 31.3398 398.152 28.668C399.23 25.9727 400.684 23.6758 402.512 21.7773C404.34 19.8555 406.473 18.3789 408.91 17.3477C411.348 16.293 413.938 15.7656 416.68 15.7656C418.156 15.7656 419.562 16.1523 420.898 16.9258C422.258 17.6992 423.535 18.6953 424.73 19.9141C424.801 18.7656 424.883 17.5234 424.977 16.1875C425.07 14.8281 425.164 13.457 425.258 12.0742C425.352 10.668 425.445 9.28516 425.539 7.92578C425.633 6.56641 425.715 5.32422 425.785 4.19922C425.785 3.98828 425.855 3.82422 425.996 3.70703C426.16 3.56641 426.559 3.41406 427.191 3.25L437.07 0.894531C437.328 0.847656 437.668 0.742188 438.09 0.578125C438.512 0.414062 438.922 0.332031 439.32 0.332031C439.625 0.332031 439.906 0.402344 440.164 0.542969C440.445 0.683594 440.586 0.953125 440.586 1.35156C440.586 1.39844 440.574 1.50391 440.551 1.66797C440.551 1.80859 440.551 1.90234 440.551 1.94922L436.016 51.4492Z" fill="#141414"/>
<path d="M463.227 56.8281C459.922 56.8281 457.016 56.2891 454.508 55.2109C452.023 54.1328 449.938 52.7031 448.25 50.9219C446.562 49.1172 445.297 47.0547 444.453 44.7344C443.609 42.3906 443.188 39.9648 443.188 37.457C443.188 34.9492 443.598 32.5703 444.418 30.3203C445.238 28.0469 446.387 26.0195 447.863 24.2383C449.34 22.4336 451.109 20.9336 453.172 19.7383C455.234 18.5195 457.508 17.6992 459.992 17.2773C460.367 17.2539 460.555 17.1719 460.555 17.0312C460.555 16.7734 460.52 16.5391 460.449 16.3281C460.402 16.0938 460.379 15.8945 460.379 15.7305C460.379 15.4727 460.426 15.2969 460.52 15.2031C460.613 15.1094 460.719 15.0625 460.836 15.0625C465.312 15.0625 469.121 15.5781 472.262 16.6094C475.402 17.6172 477.957 19 479.926 20.7578C481.895 22.5156 483.324 24.5898 484.215 26.9805C485.105 29.3711 485.551 31.9375 485.551 34.6797C485.551 38.1719 484.965 41.2891 483.793 44.0312C482.621 46.7734 481.016 49.0938 478.977 50.9922C476.961 52.8906 474.594 54.332 471.875 55.3164C469.18 56.3242 466.297 56.8281 463.227 56.8281ZM456.723 37.0703C456.723 38.3359 456.852 39.5898 457.109 40.832C457.391 42.0742 457.836 43.1992 458.445 44.207C459.078 45.2148 459.898 46.0352 460.906 46.668C461.914 47.2773 463.168 47.582 464.668 47.582C465.746 47.5352 466.684 47.3008 467.48 46.8789C468.301 46.4336 469.004 45.8711 469.59 45.1914C470.176 44.4883 470.656 43.7031 471.031 42.8359C471.43 41.9688 471.734 41.0781 471.945 40.1641C472.18 39.2266 472.344 38.3125 472.438 37.4219C472.531 36.5312 472.578 35.7227 472.578 34.9961C472.578 33.7773 472.391 32.582 472.016 31.4102C471.664 30.2383 471.137 29.207 470.434 28.3164C469.73 27.4258 468.852 26.7109 467.797 26.1719C466.766 25.6094 465.57 25.3281 464.211 25.3281C462.805 25.3281 461.621 25.75 460.66 26.5938C459.699 27.4141 458.926 28.4336 458.34 29.6523C457.777 30.8711 457.367 32.1602 457.109 33.5195C456.852 34.8555 456.723 36.0391 456.723 37.0703Z" fill="#141414"/>
<path d="M518.844 26.3828C518.352 26.3359 517.801 26.2891 517.191 26.2422C516.582 26.1719 515.938 26.1367 515.258 26.1367C514.227 26.1367 513.172 26.2305 512.094 26.418C511.039 26.582 510.055 26.9219 509.141 27.4375C508.227 27.9531 507.441 28.668 506.785 29.582C506.129 30.4727 505.707 31.6328 505.52 33.0625C505.355 34.7969 505.215 36.2266 505.098 37.3516C505.004 38.4531 504.934 39.3672 504.887 40.0938C504.84 40.7969 504.793 41.3711 504.746 41.8164C504.723 42.2383 504.699 42.6367 504.676 43.0117C504.676 43.1055 504.652 43.3633 504.605 43.7852C504.582 44.207 504.535 44.6992 504.465 45.2617C504.395 45.8242 504.324 46.4336 504.254 47.0898C504.207 47.7461 504.148 48.3555 504.078 48.918C504.008 49.4805 503.949 49.9727 503.902 50.3945C503.879 50.8164 503.867 51.0742 503.867 51.168C503.867 51.3555 503.867 51.5195 503.867 51.6602C503.891 51.7773 503.902 51.8945 503.902 52.0117C503.902 52.1992 503.809 52.3633 503.621 52.5039C503.457 52.6211 503.07 52.7617 502.461 52.9258L493.145 56.2656C492.887 56.3594 492.547 56.4766 492.125 56.6172C491.703 56.7578 491.293 56.8281 490.895 56.8281C490.566 56.8281 490.273 56.7461 490.016 56.582C489.781 56.418 489.664 56.1367 489.664 55.7383L492.688 20.8984C492.758 20.125 492.84 19.5977 492.934 19.3164C493.051 19.0117 493.32 18.8125 493.742 18.7188C495.875 18.2969 498.078 17.875 500.352 17.4531C502.625 17.0078 504.828 16.4453 506.961 15.7656C507.148 15.7656 507.254 15.8008 507.277 15.8711C507.324 15.918 507.348 16 507.348 16.1172C507.348 16.1641 507.336 16.2344 507.312 16.3281C507.312 16.4219 507.277 16.6328 507.207 16.9609C507.16 17.2891 507.078 17.793 506.961 18.4727C506.867 19.1289 506.727 20.0547 506.539 21.25C507.617 20.4062 508.801 19.6328 510.09 18.9297C511.402 18.2266 512.715 17.6289 514.027 17.1367C515.34 16.6211 516.605 16.2227 517.824 15.9414C519.043 15.6367 520.109 15.4844 521.023 15.4844L518.844 26.3828Z" fill="#141414"/>
<path d="M35.9023 106.102C35.8086 106.453 35.6328 106.957 35.375 107.613C35.1172 108.27 34.8242 109.02 34.4961 109.863C34.168 110.684 33.8047 111.562 33.4062 112.5C33.0078 113.414 32.6211 114.316 32.2461 115.207C32.082 115.605 31.8828 115.898 31.6484 116.086C31.4375 116.273 30.9922 116.379 30.3125 116.402L20.0469 116.578L18.7812 132.188C18.7578 132.398 18.6992 132.609 18.6055 132.82C18.5117 133.008 18.3711 133.16 18.1836 133.277C18.1133 133.324 17.832 133.465 17.3398 133.699C16.8711 133.91 16.2734 134.168 15.5469 134.473C14.8203 134.777 14.0234 135.105 13.1562 135.457C12.2891 135.809 11.4336 136.125 10.5898 136.406C9.74609 136.711 8.97266 136.957 8.26953 137.145C7.56641 137.355 7.01562 137.461 6.61719 137.461C6.14844 137.461 5.71484 137.367 5.31641 137.18C4.94141 137.016 4.75391 136.664 4.75391 136.125C4.73047 134.953 4.75391 133.664 4.82422 132.258C4.91797 130.828 5.02344 129.387 5.14062 127.934C5.25781 126.457 5.38672 125.016 5.52734 123.609C5.66797 122.18 5.78516 120.879 5.87891 119.707L6.125 116.754C4.15625 116.754 2.75 116.707 1.90625 116.613C1.0625 116.496 0.640625 116.215 0.640625 115.77C0.640625 115.465 0.816406 115.066 1.16797 114.574C1.66016 113.895 2.21094 113.074 2.82031 112.113C3.45312 111.152 4.05078 110.215 4.61328 109.301C5.19922 108.387 5.70312 107.578 6.125 106.875C6.57031 106.172 6.85156 105.738 6.96875 105.574L7.63672 95.9062C7.19141 95.9062 6.80469 95.918 6.47656 95.9414C6.14844 95.9414 5.84375 95.9531 5.5625 95.9766C5.30469 95.9766 5.05859 95.9883 4.82422 96.0117C4.58984 96.0117 4.34375 96.0117 4.08594 96.0117C2.96094 96.0117 2.15234 95.9531 1.66016 95.8359C1.19141 95.6953 0.957031 95.4492 0.957031 95.0977C0.957031 94.9336 1.09766 94.5938 1.37891 94.0781C1.66016 93.5625 2 92.9766 2.39844 92.3203C2.82031 91.6406 3.26562 90.9375 3.73438 90.2109C4.22656 89.4609 4.66016 88.7695 5.03516 88.1367L7.14453 84.5508L23.1406 83.9883C25.2031 83.918 27.2539 83.8477 29.293 83.7773C31.332 83.6836 33.207 83.6016 34.918 83.5312C36.6523 83.4609 38.1406 83.4023 39.3828 83.3555C40.625 83.2852 41.4922 83.2383 41.9844 83.2148C42.0078 83.2148 42.0664 83.2266 42.1602 83.25C42.2773 83.25 42.3945 83.2852 42.5117 83.3555C42.6289 83.4023 42.7344 83.4961 42.8281 83.6367C42.9453 83.7773 43.0039 83.9766 43.0039 84.2344C43.0039 84.375 42.8398 84.8438 42.5117 85.6406C42.1836 86.4375 41.7148 87.6211 41.1055 89.1914L39.5586 93.2695C39.3945 93.668 39.207 93.9727 38.9961 94.1836C38.7852 94.3945 38.3398 94.5117 37.6602 94.5352C36.8633 94.5586 36.0547 94.5938 35.2344 94.6406C34.4141 94.6875 33.5703 94.7344 32.7031 94.7812L22.0156 95.3086C21.875 96.2227 21.7695 96.9023 21.6992 97.3477C21.6523 97.793 21.6172 98.168 21.5938 98.4727C21.5938 98.7539 21.5938 99.0469 21.5938 99.3516C21.5938 99.6328 21.582 100.09 21.5586 100.723C21.5352 101.168 21.5 101.543 21.4531 101.848C21.4297 102.152 21.3945 102.457 21.3477 102.762C21.3242 103.043 21.2891 103.348 21.2422 103.676C21.2188 104.004 21.1953 104.414 21.1719 104.906C22.7188 104.859 24.2305 104.812 25.707 104.766C27.207 104.719 28.5781 104.672 29.8203 104.625C31.0859 104.578 32.1758 104.543 33.0898 104.52C34.0039 104.473 34.6484 104.449 35.0234 104.449C35.2109 104.449 35.4219 104.52 35.6562 104.66C35.8906 104.801 36.0078 105.07 36.0078 105.469C36.0078 105.656 35.9727 105.867 35.9023 106.102Z" fill="#141414"/>
<path d="M68.3516 106.383C67.8594 106.336 67.3086 106.289 66.6992 106.242C66.0898 106.172 65.4453 106.137 64.7656 106.137C63.7344 106.137 62.6797 106.23 61.6016 106.418C60.5469 106.582 59.5625 106.922 58.6484 107.438C57.7344 107.953 56.9492 108.668 56.293 109.582C55.6367 110.473 55.2148 111.633 55.0273 113.062C54.8633 114.797 54.7227 116.227 54.6055 117.352C54.5117 118.453 54.4414 119.367 54.3945 120.094C54.3477 120.797 54.3008 121.371 54.2539 121.816C54.2305 122.238 54.207 122.637 54.1836 123.012C54.1836 123.105 54.1602 123.363 54.1133 123.785C54.0898 124.207 54.043 124.699 53.9727 125.262C53.9023 125.824 53.832 126.434 53.7617 127.09C53.7148 127.746 53.6562 128.355 53.5859 128.918C53.5156 129.48 53.457 129.973 53.4102 130.395C53.3867 130.816 53.375 131.074 53.375 131.168C53.375 131.355 53.375 131.52 53.375 131.66C53.3984 131.777 53.4102 131.895 53.4102 132.012C53.4102 132.199 53.3164 132.363 53.1289 132.504C52.9648 132.621 52.5781 132.762 51.9688 132.926L42.6523 136.266C42.3945 136.359 42.0547 136.477 41.6328 136.617C41.2109 136.758 40.8008 136.828 40.4023 136.828C40.0742 136.828 39.7812 136.746 39.5234 136.582C39.2891 136.418 39.1719 136.137 39.1719 135.738L42.1953 100.898C42.2656 100.125 42.3477 99.5977 42.4414 99.3164C42.5586 99.0117 42.8281 98.8125 43.25 98.7188C45.3828 98.2969 47.5859 97.875 49.8594 97.4531C52.1328 97.0078 54.3359 96.4453 56.4688 95.7656C56.6562 95.7656 56.7617 95.8008 56.7852 95.8711C56.832 95.918 56.8555 96 56.8555 96.1172C56.8555 96.1641 56.8438 96.2344 56.8203 96.3281C56.8203 96.4219 56.7852 96.6328 56.7148 96.9609C56.668 97.2891 56.5859 97.793 56.4688 98.4727C56.375 99.1289 56.2344 100.055 56.0469 101.25C57.125 100.406 58.3086 99.6328 59.5977 98.9297C60.9102 98.2266 62.2227 97.6289 63.5352 97.1367C64.8477 96.6211 66.1133 96.2227 67.332 95.9414C68.5508 95.6367 69.6172 95.4844 70.5312 95.4844L68.3516 106.383Z" fill="#141414"/>
<path d="M89.7969 136.828C86.4922 136.828 83.5859 136.289 81.0781 135.211C78.5938 134.133 76.5078 132.703 74.8203 130.922C73.1328 129.117 71.8672 127.055 71.0234 124.734C70.1797 122.391 69.7578 119.965 69.7578 117.457C69.7578 114.949 70.168 112.57 70.9883 110.32C71.8086 108.047 72.957 106.02 74.4336 104.238C75.9102 102.434 77.6797 100.934 79.7422 99.7383C81.8047 98.5195 84.0781 97.6992 86.5625 97.2773C86.9375 97.2539 87.125 97.1719 87.125 97.0312C87.125 96.7734 87.0898 96.5391 87.0195 96.3281C86.9727 96.0938 86.9492 95.8945 86.9492 95.7305C86.9492 95.4727 86.9961 95.2969 87.0898 95.2031C87.1836 95.1094 87.2891 95.0625 87.4062 95.0625C91.8828 95.0625 95.6914 95.5781 98.832 96.6094C101.973 97.6172 104.527 99 106.496 100.758C108.465 102.516 109.895 104.59 110.785 106.98C111.676 109.371 112.121 111.938 112.121 114.68C112.121 118.172 111.535 121.289 110.363 124.031C109.191 126.773 107.586 129.094 105.547 130.992C103.531 132.891 101.164 134.332 98.4453 135.316C95.75 136.324 92.8672 136.828 89.7969 136.828ZM83.293 117.07C83.293 118.336 83.4219 119.59 83.6797 120.832C83.9609 122.074 84.4062 123.199 85.0156 124.207C85.6484 125.215 86.4688 126.035 87.4766 126.668C88.4844 127.277 89.7383 127.582 91.2383 127.582C92.3164 127.535 93.2539 127.301 94.0508 126.879C94.8711 126.434 95.5742 125.871 96.1602 125.191C96.7461 124.488 97.2266 123.703 97.6016 122.836C98 121.969 98.3047 121.078 98.5156 120.164C98.75 119.227 98.9141 118.312 99.0078 117.422C99.1016 116.531 99.1484 115.723 99.1484 114.996C99.1484 113.777 98.9609 112.582 98.5859 111.41C98.2344 110.238 97.707 109.207 97.0039 108.316C96.3008 107.426 95.4219 106.711 94.3672 106.172C93.3359 105.609 92.1406 105.328 90.7812 105.328C89.375 105.328 88.1914 105.75 87.2305 106.594C86.2695 107.414 85.4961 108.434 84.9102 109.652C84.3477 110.871 83.9375 112.16 83.6797 113.52C83.4219 114.855 83.293 116.039 83.293 117.07Z" fill="#141414"/>
<path d="M145.836 136.266C145.578 136.336 145.238 136.441 144.816 136.582C144.395 136.746 143.984 136.828 143.586 136.828C143.258 136.828 142.965 136.746 142.707 136.582C142.473 136.418 142.355 136.137 142.355 135.738V135.527C142.496 134.262 142.613 133.195 142.707 132.328C142.801 131.438 142.883 130.641 142.953 129.938C143.047 129.211 143.117 128.496 143.164 127.793C143.234 127.066 143.316 126.234 143.41 125.297C143.504 124.336 143.609 123.211 143.727 121.922C143.867 120.609 144.031 118.98 144.219 117.035C144.336 115.84 144.441 114.621 144.535 113.379C144.629 112.137 144.676 110.988 144.676 109.934C144.676 109.23 144.617 108.586 144.5 108C144.406 107.391 144.219 106.875 143.938 106.453C143.68 106.008 143.316 105.668 142.848 105.434C142.379 105.199 141.781 105.082 141.055 105.082C140.516 105.082 139.766 105.199 138.805 105.434C137.867 105.668 136.93 106.055 135.992 106.594C135.055 107.133 134.223 107.848 133.496 108.738C132.77 109.605 132.359 110.684 132.266 111.973C132.125 113.707 131.996 115.195 131.879 116.438C131.762 117.656 131.656 118.699 131.562 119.566C131.469 120.41 131.387 121.102 131.316 121.641C131.27 122.18 131.234 122.637 131.211 123.012C131.188 123.105 131.152 123.363 131.105 123.785C131.059 124.207 131 124.711 130.93 125.297C130.883 125.883 130.824 126.504 130.754 127.16C130.707 127.816 130.648 128.438 130.578 129.023C130.531 129.609 130.484 130.113 130.438 130.535C130.414 130.957 130.402 131.215 130.402 131.309C130.402 131.496 130.402 131.66 130.402 131.801C130.426 131.918 130.438 132.035 130.438 132.152C130.438 132.34 130.344 132.504 130.156 132.645C129.992 132.762 129.605 132.902 128.996 133.066L119.68 136.266C119.422 136.359 119.082 136.477 118.66 136.617C118.238 136.758 117.828 136.828 117.43 136.828C117.102 136.828 116.809 136.746 116.551 136.582C116.316 136.418 116.199 136.137 116.199 135.738L119.398 99.8086C119.469 99.0352 119.551 98.5078 119.645 98.2266C119.762 97.9219 120.031 97.7227 120.453 97.6289C122.586 97.207 124.777 96.7852 127.027 96.3633C129.277 95.918 131.469 95.3555 133.602 94.6758C133.789 94.6758 133.895 94.7109 133.918 94.7812C133.965 94.8281 133.988 94.9102 133.988 95.0273C133.988 95.0742 133.977 95.1445 133.953 95.2383C133.953 95.332 133.918 95.543 133.848 95.8711C133.801 96.1992 133.719 96.7031 133.602 97.3828C133.508 98.0391 133.367 98.9648 133.18 100.16C134.797 99.2227 136.309 98.4727 137.715 97.9102C139.145 97.3242 140.48 96.8789 141.723 96.5742C142.988 96.2461 144.172 96.0352 145.273 95.9414C146.375 95.8242 147.406 95.7656 148.367 95.7656C151.672 95.7656 154.074 96.7734 155.574 98.7891C157.074 100.781 157.824 103.781 157.824 107.789C157.824 108.352 157.812 108.938 157.789 109.547C157.766 110.133 157.719 110.742 157.648 111.375L156.031 126.492C155.914 127.477 155.844 128.391 155.82 129.234C155.797 130.055 155.785 131.016 155.785 132.117C155.785 132.305 155.785 132.469 155.785 132.609C155.809 132.727 155.82 132.832 155.82 132.926C155.82 133.137 155.727 133.301 155.539 133.418C155.375 133.535 154.988 133.688 154.379 133.875L145.836 136.266Z" fill="#141414"/>
<path d="M182.082 107.895C181.754 110.355 181.438 112.816 181.133 115.277C180.852 117.715 180.676 120 180.605 122.133C180.605 123.047 180.676 123.809 180.816 124.418C180.957 125.027 181.156 125.508 181.414 125.859C181.695 126.211 182.023 126.469 182.398 126.633C182.773 126.773 183.195 126.844 183.664 126.844C184.414 126.844 185.234 126.738 186.125 126.527C187.016 126.293 187.906 126 188.797 125.648C189.078 125.531 189.312 125.449 189.5 125.402C189.711 125.332 189.887 125.297 190.027 125.297C190.262 125.297 190.414 125.402 190.484 125.613C190.578 125.824 190.66 126.199 190.73 126.738C190.824 127.254 190.953 127.957 191.117 128.848C191.281 129.738 191.551 130.863 191.926 132.223C191.949 132.34 191.961 132.445 191.961 132.539C191.984 132.609 191.996 132.68 191.996 132.75C191.996 133.078 191.867 133.312 191.609 133.453C191.375 133.594 190.977 133.758 190.414 133.945C189.453 134.273 188.434 134.613 187.355 134.965C186.301 135.293 185.246 135.598 184.191 135.879C183.16 136.16 182.164 136.383 181.203 136.547C180.242 136.734 179.398 136.828 178.672 136.828C174.758 136.828 171.898 135.855 170.094 133.91C168.312 131.965 167.422 129 167.422 125.016C167.422 124.336 167.445 123.645 167.492 122.941C167.539 122.215 167.598 121.465 167.668 120.691C167.902 118.348 168.102 116.133 168.266 114.047C168.453 111.938 168.641 109.922 168.828 108H165.137C163.871 108 162.957 107.953 162.395 107.859C161.832 107.742 161.551 107.52 161.551 107.191C161.551 107.098 161.668 106.852 161.902 106.453C162.137 106.031 162.43 105.539 162.781 104.977C163.156 104.391 163.555 103.77 163.977 103.113C164.398 102.457 164.797 101.848 165.172 101.285C165.57 100.699 165.91 100.195 166.191 99.7734C166.473 99.3516 166.648 99.0938 166.719 99H169.215C169.426 97.2188 169.59 95.7305 169.707 94.5352C169.848 93.3164 169.953 92.3086 170.023 91.5117C170.117 90.7148 170.199 90.1055 170.27 89.6836C170.34 89.2383 170.41 88.9102 170.48 88.6992C170.574 88.4883 170.68 88.3594 170.797 88.3125C170.938 88.2422 171.113 88.1836 171.324 88.1367C172.379 87.9258 173.398 87.7383 174.383 87.5742C175.367 87.3867 176.352 87.1992 177.336 87.0117C178.32 86.8242 179.316 86.6133 180.324 86.3789C181.355 86.1211 182.422 85.8281 183.523 85.5C183.594 85.5 183.641 85.5 183.664 85.5C183.688 85.4766 183.734 85.4648 183.805 85.4648C184.086 85.4648 184.227 85.5586 184.227 85.7461V85.8164C184.109 87.1055 183.922 88.8984 183.664 91.1953C183.43 93.4922 183.16 96.0938 182.855 99H192.277C192.465 99 192.641 99.0703 192.805 99.2109C192.992 99.3281 193.086 99.5391 193.086 99.8438C193.086 99.9609 192.945 100.383 192.664 101.109C192.383 101.836 191.984 102.785 191.469 103.957L190.203 106.805C190.039 107.156 189.863 107.414 189.676 107.578C189.512 107.742 189.16 107.848 188.621 107.895H182.082Z" fill="#141414"/>
<path d="M243.184 105.82C243.09 106.148 242.914 106.617 242.656 107.227C242.398 107.812 242.094 108.48 241.742 109.23C241.414 109.98 241.051 110.789 240.652 111.656C240.277 112.5 239.902 113.355 239.527 114.223C239.387 114.551 239.258 114.797 239.141 114.961C239.023 115.102 238.836 115.207 238.578 115.277C238.32 115.348 237.957 115.395 237.488 115.418C237.043 115.418 236.41 115.43 235.59 115.453L230.703 115.559L229.719 126.316H247.754V127.688C247.707 127.734 247.508 128.051 247.156 128.637C246.805 129.199 246.395 129.879 245.926 130.676C245.457 131.473 244.965 132.281 244.449 133.102C243.934 133.898 243.5 134.543 243.148 135.035C242.914 135.457 242.645 135.785 242.34 136.02C242.035 136.277 241.695 136.465 241.32 136.582C240.969 136.699 240.57 136.77 240.125 136.793C239.703 136.816 239.234 136.828 238.719 136.828C236.609 136.828 234.406 136.781 232.109 136.688C229.836 136.594 227.562 136.477 225.289 136.336C223.016 136.195 220.789 136.031 218.609 135.844C216.453 135.68 214.449 135.504 212.598 135.316C212.434 135.293 212.281 135.199 212.141 135.035C212.023 134.871 211.965 134.684 211.965 134.473C211.871 134.473 211.93 134.273 212.141 133.875C212.375 133.477 212.691 132.961 213.09 132.328C213.488 131.695 213.922 130.98 214.391 130.184C214.883 129.363 215.352 128.543 215.797 127.723L216.359 119.812C216.453 118.477 216.523 117.48 216.57 116.824C216.641 116.168 216.676 115.816 216.676 115.77C215.27 115.746 214.215 115.676 213.512 115.559C212.832 115.441 212.492 115.184 212.492 114.785C212.492 114.598 212.656 114.246 212.984 113.73C213.336 113.215 213.758 112.629 214.25 111.973C214.742 111.293 215.258 110.59 215.797 109.863C216.359 109.137 216.852 108.469 217.273 107.859L218.152 95.9062H218.047C217.531 95.9297 217.062 95.9531 216.641 95.9766C216.219 95.9766 215.832 95.9766 215.48 95.9766C214.355 95.9766 213.547 95.918 213.055 95.8008C212.586 95.6602 212.352 95.4141 212.352 95.0625C212.352 94.8984 212.492 94.5586 212.773 94.043C213.055 93.5273 213.406 92.9414 213.828 92.2852C214.25 91.6055 214.695 90.9023 215.164 90.1758C215.633 89.4258 216.055 88.7344 216.43 88.1016L218.539 84.5156H233.234L250.566 83.25C250.59 83.25 250.648 83.2617 250.742 83.2852C250.859 83.2852 250.977 83.3203 251.094 83.3906C251.211 83.4375 251.316 83.5312 251.41 83.6719C251.527 83.8125 251.586 84.0117 251.586 84.2695L251.059 86.0977C250.895 86.6133 250.695 87.1641 250.461 87.75C250.227 88.3125 249.969 88.8984 249.688 89.5078L248.141 93.5859C247.977 93.9844 247.789 94.2891 247.578 94.5C247.367 94.7109 246.922 94.8281 246.242 94.8516C244.461 94.8984 242.469 94.9805 240.266 95.0977C238.086 95.1914 235.578 95.2852 232.742 95.3789C232.648 95.707 232.602 95.9766 232.602 96.1875C232.602 96.375 232.578 96.75 232.531 97.3125L232.355 98.9297C232.309 99.6797 232.238 100.488 232.145 101.355C232.051 102.223 231.934 103.289 231.793 104.555C232.988 104.508 234.148 104.461 235.273 104.414C236.422 104.367 237.465 104.332 238.402 104.309C239.34 104.262 240.148 104.227 240.828 104.203C241.531 104.18 242.023 104.168 242.305 104.168C242.492 104.168 242.703 104.238 242.938 104.379C243.172 104.52 243.289 104.789 243.289 105.188C243.289 105.375 243.254 105.586 243.184 105.82Z" fill="#141414"/>
<path d="M281.188 136.266C280.93 136.336 280.59 136.441 280.168 136.582C279.746 136.746 279.336 136.828 278.938 136.828C278.609 136.828 278.316 136.746 278.059 136.582C277.824 136.418 277.707 136.137 277.707 135.738V135.527C277.848 134.262 277.965 133.195 278.059 132.328C278.152 131.438 278.234 130.641 278.305 129.938C278.398 129.211 278.469 128.496 278.516 127.793C278.586 127.066 278.668 126.234 278.762 125.297C278.855 124.336 278.961 123.211 279.078 121.922C279.219 120.609 279.383 118.98 279.57 117.035C279.688 115.84 279.793 114.621 279.887 113.379C279.98 112.137 280.027 110.988 280.027 109.934C280.027 109.23 279.969 108.586 279.852 108C279.758 107.391 279.57 106.875 279.289 106.453C279.031 106.008 278.668 105.668 278.199 105.434C277.73 105.199 277.133 105.082 276.406 105.082C275.867 105.082 275.117 105.199 274.156 105.434C273.219 105.668 272.281 106.055 271.344 106.594C270.406 107.133 269.574 107.848 268.848 108.738C268.121 109.605 267.711 110.684 267.617 111.973C267.477 113.707 267.348 115.195 267.23 116.438C267.113 117.656 267.008 118.699 266.914 119.566C266.82 120.41 266.738 121.102 266.668 121.641C266.621 122.18 266.586 122.637 266.562 123.012C266.539 123.105 266.504 123.363 266.457 123.785C266.41 124.207 266.352 124.711 266.281 125.297C266.234 125.883 266.176 126.504 266.105 127.16C266.059 127.816 266 128.438 265.93 129.023C265.883 129.609 265.836 130.113 265.789 130.535C265.766 130.957 265.754 131.215 265.754 131.309C265.754 131.496 265.754 131.66 265.754 131.801C265.777 131.918 265.789 132.035 265.789 132.152C265.789 132.34 265.695 132.504 265.508 132.645C265.344 132.762 264.957 132.902 264.348 133.066L255.031 136.266C254.773 136.359 254.434 136.477 254.012 136.617C253.59 136.758 253.18 136.828 252.781 136.828C252.453 136.828 252.16 136.746 251.902 136.582C251.668 136.418 251.551 136.137 251.551 135.738L254.75 99.8086C254.82 99.0352 254.902 98.5078 254.996 98.2266C255.113 97.9219 255.383 97.7227 255.805 97.6289C257.938 97.207 260.129 96.7852 262.379 96.3633C264.629 95.918 266.82 95.3555 268.953 94.6758C269.141 94.6758 269.246 94.7109 269.27 94.7812C269.316 94.8281 269.34 94.9102 269.34 95.0273C269.34 95.0742 269.328 95.1445 269.305 95.2383C269.305 95.332 269.27 95.543 269.199 95.8711C269.152 96.1992 269.07 96.7031 268.953 97.3828C268.859 98.0391 268.719 98.9648 268.531 100.16C270.148 99.2227 271.66 98.4727 273.066 97.9102C274.496 97.3242 275.832 96.8789 277.074 96.5742C278.34 96.2461 279.523 96.0352 280.625 95.9414C281.727 95.8242 282.758 95.7656 283.719 95.7656C287.023 95.7656 289.426 96.7734 290.926 98.7891C292.426 100.781 293.176 103.781 293.176 107.789C293.176 108.352 293.164 108.938 293.141 109.547C293.117 110.133 293.07 110.742 293 111.375L291.383 126.492C291.266 127.477 291.195 128.391 291.172 129.234C291.148 130.055 291.137 131.016 291.137 132.117C291.137 132.305 291.137 132.469 291.137 132.609C291.16 132.727 291.172 132.832 291.172 132.926C291.172 133.137 291.078 133.301 290.891 133.418C290.727 133.535 290.34 133.688 289.73 133.875L281.188 136.266Z" fill="#141414"/>
<path d="M325.098 114.996C325.168 114.246 325.238 113.461 325.309 112.641C325.402 111.82 325.508 110.965 325.625 110.074C325.086 108.668 324.324 107.531 323.34 106.664C322.355 105.773 321.125 105.328 319.648 105.328C318.195 105.328 316.965 105.75 315.957 106.594C314.949 107.414 314.141 108.434 313.531 109.652C312.922 110.871 312.477 112.16 312.195 113.52C311.938 114.855 311.809 116.039 311.809 117.07C311.809 118.336 311.879 119.59 312.02 120.832C312.184 122.074 312.43 123.199 312.758 124.207C313.109 125.215 313.566 126.035 314.129 126.668C314.691 127.277 315.395 127.582 316.238 127.582C318.301 127.512 319.977 127.043 321.266 126.176C322.555 125.309 323.586 124.254 324.359 123.012L325.098 114.996ZM337.367 131.449C337.367 131.496 337.355 131.555 337.332 131.625C337.332 131.672 337.332 131.719 337.332 131.766C337.332 131.883 337.332 131.977 337.332 132.047C337.355 132.117 337.367 132.188 337.367 132.258C337.367 132.469 337.285 132.645 337.121 132.785C336.98 132.902 336.594 133.043 335.961 133.207L326.539 136.266C326.281 136.359 325.941 136.477 325.52 136.617C325.098 136.758 324.688 136.828 324.289 136.828C323.961 136.828 323.668 136.746 323.41 136.582C323.176 136.418 323.059 136.113 323.059 135.668C323.059 135.246 323.059 134.906 323.059 134.648C323.082 134.391 323.094 134.156 323.094 133.945C323.117 133.711 323.141 133.465 323.164 133.207C323.211 132.949 323.258 132.609 323.305 132.188C321.547 133.594 319.73 134.719 317.855 135.562C316.004 136.406 314.047 136.828 311.984 136.828C309.734 136.828 307.73 136.289 305.973 135.211C304.238 134.156 302.773 132.738 301.578 130.957C300.383 129.152 299.469 127.102 298.836 124.805C298.227 122.484 297.922 120.07 297.922 117.562C297.922 114.305 298.449 111.34 299.504 108.668C300.582 105.973 302.035 103.676 303.863 101.777C305.691 99.8555 307.824 98.3789 310.262 97.3477C312.699 96.293 315.289 95.7656 318.031 95.7656C319.508 95.7656 320.914 96.1523 322.25 96.9258C323.609 97.6992 324.887 98.6953 326.082 99.9141C326.152 98.7656 326.234 97.5234 326.328 96.1875C326.422 94.8281 326.516 93.457 326.609 92.0742C326.703 90.668 326.797 89.2852 326.891 87.9258C326.984 86.5664 327.066 85.3242 327.137 84.1992C327.137 83.9883 327.207 83.8242 327.348 83.707C327.512 83.5664 327.91 83.4141 328.543 83.25L338.422 80.8945C338.68 80.8477 339.02 80.7422 339.441 80.5781C339.863 80.4141 340.273 80.332 340.672 80.332C340.977 80.332 341.258 80.4023 341.516 80.543C341.797 80.6836 341.938 80.9531 341.938 81.3516C341.938 81.3984 341.926 81.5039 341.902 81.668C341.902 81.8086 341.902 81.9023 341.902 81.9492L337.367 131.449Z" fill="#141414"/>
<path d="M359.305 124.559C359.305 123.832 359.328 123.141 359.375 122.484C359.445 121.805 359.609 121.113 359.867 120.41C360.125 119.707 360.523 118.98 361.062 118.23C361.625 117.457 362.387 116.602 363.348 115.664C364.309 114.727 365.516 113.684 366.969 112.535C368.445 111.387 370.238 110.086 372.348 108.633C370.871 106.664 369.781 104.684 369.078 102.691C368.375 100.699 368.023 98.7539 368.023 96.8555C368.023 95.0977 368.434 93.4453 369.254 91.8984C370.098 90.3516 371.328 89.0039 372.945 87.8555C374.562 86.6836 376.543 85.7695 378.887 85.1133C381.254 84.4336 383.973 84.0938 387.043 84.0938C387.676 84.0938 388.391 84.1758 389.188 84.3398C390.008 84.4805 390.828 84.7148 391.648 85.043C392.492 85.3711 393.312 85.8047 394.109 86.3438C394.906 86.8828 395.609 87.5508 396.219 88.3477C396.852 89.1211 397.355 90.0234 397.73 91.0547C398.129 92.0859 398.328 93.2695 398.328 94.6055C398.328 95.8477 398.117 96.9727 397.695 97.9805C397.297 98.9648 396.676 99.9727 395.832 101.004C395.012 102.012 393.957 103.102 392.668 104.273C391.402 105.422 389.902 106.77 388.168 108.316L396.535 115.031C396.793 115.266 397.039 115.488 397.273 115.699C397.531 115.91 397.801 116.004 398.082 115.98C398.199 115.793 398.316 115.688 398.434 115.664C398.574 115.641 398.715 115.629 398.855 115.629L406.836 108.211C407.258 108.375 407.785 108.703 408.418 109.195C409.074 109.688 409.695 110.238 410.281 110.848C410.891 111.457 411.406 112.09 411.828 112.746C412.25 113.379 412.461 113.918 412.461 114.363C412.461 114.645 412.414 114.867 412.32 115.031L405.957 121.746L406.344 122.062C406.555 122.203 406.801 122.391 407.082 122.625C407.387 122.836 407.715 123.082 408.066 123.363C408.441 123.621 408.828 123.902 409.227 124.207C409.648 124.488 410.07 124.77 410.492 125.051C410.727 125.215 410.867 125.391 410.914 125.578C410.961 125.766 410.984 125.883 410.984 125.93C410.984 126.258 410.844 126.668 410.562 127.16C410.281 127.652 409.918 128.18 409.473 128.742C409.051 129.305 408.57 129.891 408.031 130.5C407.516 131.086 407 131.648 406.484 132.188C405.969 132.703 405.488 133.184 405.043 133.629C404.598 134.051 404.258 134.367 404.023 134.578C403.789 134.812 403.543 134.93 403.285 134.93C403.098 134.93 402.934 134.859 402.793 134.719L395.727 130.395C393.359 131.66 391.273 132.703 389.469 133.523C387.688 134.344 386.012 135 384.441 135.492C382.895 135.984 381.371 136.324 379.871 136.512C378.395 136.699 376.766 136.793 374.984 136.793C373.016 136.793 371.094 136.547 369.219 136.055C367.344 135.562 365.668 134.812 364.191 133.805C362.738 132.773 361.555 131.496 360.641 129.973C359.75 128.449 359.305 126.645 359.305 124.559ZM374.562 122.309C374.562 122.824 374.633 123.352 374.773 123.891C374.914 124.406 375.16 124.887 375.512 125.332C375.863 125.754 376.344 126.105 376.953 126.387C377.562 126.668 378.348 126.809 379.309 126.809C379.613 126.809 380.035 126.785 380.574 126.738C381.113 126.691 381.723 126.562 382.402 126.352C383.082 126.141 383.832 125.824 384.652 125.402C385.496 124.957 386.375 124.348 387.289 123.574L378.922 115.453C378.406 115.734 377.891 116.051 377.375 116.402C376.859 116.754 376.391 117.199 375.969 117.738C375.547 118.254 375.207 118.887 374.949 119.637C374.691 120.363 374.562 121.254 374.562 122.309ZM384.301 92.3203C383.551 92.3203 382.895 92.4375 382.332 92.6719C381.793 92.9062 381.348 93.2227 380.996 93.6211C380.645 93.9961 380.375 94.4414 380.188 94.957C380.023 95.4492 379.941 95.9766 379.941 96.5391C379.941 97.4062 380.129 98.2969 380.504 99.2109C380.902 100.102 381.477 100.887 382.227 101.566C384.055 100.348 385.355 99.1641 386.129 98.0156C386.926 96.8438 387.324 95.8125 387.324 94.9219C387.324 94.125 387.055 93.4922 386.516 93.0234C385.977 92.5547 385.238 92.3203 384.301 92.3203Z" fill="#141414"/>
<path d="M44.5508 164.727C44.5039 165.359 44.4219 166.297 44.3047 167.539C44.1875 168.758 44.0469 170.152 43.8828 171.723C43.7422 173.27 43.5898 174.898 43.4258 176.609C43.2617 178.32 43.0977 179.961 42.9336 181.531C42.793 183.078 42.6641 184.484 42.5469 185.75C42.4297 187.016 42.3477 187.965 42.3008 188.598C41.8086 193.59 40.9648 197.879 39.7695 201.465C38.5977 205.027 37.0508 207.945 35.1289 210.219C33.207 212.492 30.8984 214.156 28.2031 215.211C25.5312 216.289 22.4375 216.828 18.9219 216.828C16.5078 216.828 14.2344 216.383 12.1016 215.492C9.96875 214.625 8.10547 213.395 6.51172 211.801C4.91797 210.207 3.65234 208.297 2.71484 206.07C1.80078 203.82 1.34375 201.324 1.34375 198.582C1.34375 198.23 1.36719 197.598 1.41406 196.684C1.48438 195.746 1.56641 194.609 1.66016 193.273C1.77734 191.938 1.89453 190.426 2.01172 188.738C2.15234 187.027 2.29297 185.211 2.43359 183.289L2.85547 177.453C2.99609 175.32 3.10156 173.551 3.17188 172.145C3.24219 170.715 3.3125 169.566 3.38281 168.699C3.47656 167.832 3.60547 167.199 3.76953 166.801C3.93359 166.402 4.19141 166.145 4.54297 166.027L16.5312 163.355C16.8359 163.262 17.1523 163.215 17.4805 163.215C17.8555 163.215 18.1016 163.32 18.2188 163.531C18.3594 163.742 18.4297 164.141 18.4297 164.727L15.7578 192.43C15.7109 193.25 15.6289 194.141 15.5117 195.102C15.3945 196.062 15.3359 197.047 15.3359 198.055C15.3359 198.664 15.4062 199.332 15.5469 200.059C15.7109 200.785 15.9922 201.477 16.3906 202.133C16.7891 202.766 17.3281 203.305 18.0078 203.75C18.7109 204.172 19.6133 204.383 20.7148 204.383C22.0508 204.383 23.1289 204.102 23.9492 203.539C24.7695 202.953 25.4258 202.191 25.918 201.254C26.4102 200.293 26.7617 199.215 26.9727 198.02C27.207 196.801 27.3945 195.559 27.5352 194.293C27.6523 192.816 27.793 191.082 27.957 189.09C28.1211 187.098 28.2852 184.965 28.4492 182.691L29.4688 168.664C29.5156 168.242 29.5391 167.891 29.5391 167.609C29.5625 167.328 29.5977 167.094 29.6445 166.906C29.6914 166.719 29.7852 166.578 29.9258 166.484C30.0898 166.391 30.3359 166.32 30.6641 166.273L42.6523 163.355C42.957 163.262 43.2734 163.215 43.6016 163.215C43.9297 163.215 44.1641 163.32 44.3047 163.531C44.4688 163.719 44.5508 164.117 44.5508 164.727Z" fill="#141414"/>
<path d="M60.125 164.305C60.3125 164.258 60.4062 164.234 60.4062 164.234H60.7227C61.1211 164.234 61.5078 164.375 61.8828 164.656C62.2578 164.914 62.6328 165.371 63.0078 166.027C63.2656 166.496 63.6289 167.188 64.0977 168.102C64.5898 169.016 65.1172 170 65.6797 171.055C66.2422 172.109 66.8047 173.176 67.3672 174.254C67.9297 175.309 68.4219 176.223 68.8438 176.996L74.6797 166.941L88.6016 164.129C88.7188 164.105 88.8242 164.094 88.918 164.094C89.0352 164.07 89.1523 164.059 89.2695 164.059C89.7852 164.059 90.043 164.258 90.043 164.656C90.043 164.797 90.0078 164.984 89.9375 165.219C89.8906 165.43 89.7969 165.664 89.6562 165.922L83.293 177.277L80.7617 181.602C80.0117 182.867 79.2031 184.227 78.3359 185.68C77.4922 187.133 76.6953 188.504 75.9453 189.793C76.3672 190.496 76.7539 191.176 77.1055 191.832C77.4805 192.488 77.8086 193.086 78.0898 193.625C78.3945 194.164 78.6406 194.633 78.8281 195.031C79.0391 195.43 79.2031 195.734 79.3203 195.945L87.8633 212.152L87.7578 213.453C87.7578 213.523 87.6055 213.664 87.3008 213.875C86.9961 214.062 86.5859 214.285 86.0703 214.543C85.5781 214.801 85.0039 215.07 84.3477 215.352C83.7148 215.633 83.0469 215.891 82.3438 216.125L79.8477 216.969C79.543 216.969 79.2031 217.039 78.8281 217.18C78.4766 217.344 78.1016 217.426 77.7031 217.426C77.375 217.426 77.0586 217.344 76.7539 217.18C76.4727 217.039 76.1797 216.734 75.875 216.266C75.3359 215.492 74.7383 214.578 74.082 213.523C73.4258 212.469 72.7227 211.262 71.9727 209.902L68.1055 203.082L62.5508 212.469L61.4609 213.523C61.4375 213.594 61.2266 213.711 60.8281 213.875C60.4297 214.016 59.9023 214.203 59.2461 214.438C58.6133 214.648 57.8984 214.883 57.1016 215.141C56.3047 215.398 55.5078 215.645 54.7109 215.879C53.9375 216.113 53.1875 216.324 52.4609 216.512C51.7344 216.723 51.1367 216.887 50.668 217.004C50.3867 217.004 49.9766 217.074 49.4375 217.215C48.9219 217.355 48.4648 217.426 48.0664 217.426C47.8555 217.426 47.6797 217.379 47.5391 217.285C47.3984 217.215 47.3281 217.086 47.3281 216.898C47.3281 216.688 47.4336 216.324 47.6445 215.809C47.8555 215.293 48.1367 214.695 48.4883 214.016C48.8398 213.312 49.2266 212.551 49.6484 211.73C50.0938 210.91 50.5391 210.09 50.9844 209.27C51.4297 208.449 51.8633 207.664 52.2852 206.914C52.707 206.164 53.0703 205.508 53.375 204.945C54.5234 202.742 55.7539 200.457 57.0664 198.09L61.0391 190.918L48.8047 169.086C48.5703 168.688 48.4531 168.277 48.4531 167.855C48.4531 167.598 48.5469 167.434 48.7344 167.363L60.125 164.305Z" fill="#141414"/>
<path d="M103.789 181.848C105.219 178.754 106.59 175.66 107.902 172.566C109.215 169.473 110.574 166.32 111.98 163.109C112.285 162.43 112.52 161.961 112.684 161.703C112.848 161.422 113.094 161.281 113.422 161.281H113.668C114.934 161.797 116.176 162.359 117.395 162.969C118.637 163.555 119.879 163.965 121.121 164.199C121.262 164.246 121.379 164.305 121.473 164.375C121.59 164.445 121.648 164.539 121.648 164.656V164.762L99.1133 214.473C99.0195 214.684 98.9492 214.883 98.9023 215.07C98.8555 215.258 98.7969 215.422 98.7266 215.562C98.6797 215.703 98.6094 215.809 98.5156 215.879C98.4219 215.973 98.2812 216.02 98.0938 216.02C97.8125 216.02 97.5078 215.938 97.1797 215.773L93.6289 214.297C93.4414 214.227 93.1602 214.133 92.7852 214.016C92.4102 213.875 92.0234 213.723 91.625 213.559C91.25 213.371 90.9102 213.16 90.6055 212.926C90.3242 212.691 90.1836 212.422 90.1836 212.117C90.1836 211.906 90.2422 211.684 90.3594 211.449C91.4375 209.176 92.4688 206.949 93.4531 204.77C94.4609 202.566 95.4805 200.293 96.5117 197.949C97.5664 195.582 98.6797 193.098 99.8516 190.496C101.023 187.871 102.336 184.988 103.789 181.848Z" fill="#141414"/>
<path d="M167.387 164.727C167.34 165.359 167.258 166.297 167.141 167.539C167.023 168.758 166.883 170.152 166.719 171.723C166.578 173.27 166.426 174.898 166.262 176.609C166.098 178.32 165.934 179.961 165.77 181.531C165.629 183.078 165.5 184.484 165.383 185.75C165.266 187.016 165.184 187.965 165.137 188.598C164.645 193.59 163.801 197.879 162.605 201.465C161.434 205.027 159.887 207.945 157.965 210.219C156.043 212.492 153.734 214.156 151.039 215.211C148.367 216.289 145.273 216.828 141.758 216.828C139.344 216.828 137.07 216.383 134.938 215.492C132.805 214.625 130.941 213.395 129.348 211.801C127.754 210.207 126.488 208.297 125.551 206.07C124.637 203.82 124.18 201.324 124.18 198.582C124.18 198.23 124.203 197.598 124.25 196.684C124.32 195.746 124.402 194.609 124.496 193.273C124.613 191.938 124.73 190.426 124.848 188.738C124.988 187.027 125.129 185.211 125.27 183.289L125.691 177.453C125.832 175.32 125.938 173.551 126.008 172.145C126.078 170.715 126.148 169.566 126.219 168.699C126.312 167.832 126.441 167.199 126.605 166.801C126.77 166.402 127.027 166.145 127.379 166.027L139.367 163.355C139.672 163.262 139.988 163.215 140.316 163.215C140.691 163.215 140.938 163.32 141.055 163.531C141.195 163.742 141.266 164.141 141.266 164.727L138.594 192.43C138.547 193.25 138.465 194.141 138.348 195.102C138.23 196.062 138.172 197.047 138.172 198.055C138.172 198.664 138.242 199.332 138.383 200.059C138.547 200.785 138.828 201.477 139.227 202.133C139.625 202.766 140.164 203.305 140.844 203.75C141.547 204.172 142.449 204.383 143.551 204.383C144.887 204.383 145.965 204.102 146.785 203.539C147.605 202.953 148.262 202.191 148.754 201.254C149.246 200.293 149.598 199.215 149.809 198.02C150.043 196.801 150.23 195.559 150.371 194.293C150.488 192.816 150.629 191.082 150.793 189.09C150.957 187.098 151.121 184.965 151.285 182.691L152.305 168.664C152.352 168.242 152.375 167.891 152.375 167.609C152.398 167.328 152.434 167.094 152.48 166.906C152.527 166.719 152.621 166.578 152.762 166.484C152.926 166.391 153.172 166.32 153.5 166.273L165.488 163.355C165.793 163.262 166.109 163.215 166.438 163.215C166.766 163.215 167 163.32 167.141 163.531C167.305 163.719 167.387 164.117 167.387 164.727Z" fill="#141414"/>
<path d="M172.168 216.125L173.926 192.078C174.512 184.016 174.945 178.098 175.227 174.324C175.508 170.551 175.648 168.676 175.648 168.699C175.672 168.277 175.695 167.926 175.719 167.645C175.742 167.363 175.789 167.129 175.859 166.941C175.93 166.754 176.023 166.613 176.141 166.52C176.258 166.426 176.434 166.355 176.668 166.309L188.832 163.391C189.137 163.297 189.453 163.25 189.781 163.25C190.109 163.25 190.332 163.355 190.449 163.566C190.566 163.754 190.625 164.152 190.625 164.762C190.461 166.215 190.332 167.574 190.238 168.84C190.145 170.105 190.062 171.312 189.992 172.461C189.945 173.609 189.898 174.723 189.852 175.801C189.805 176.855 189.746 177.91 189.676 178.965C189.535 180.113 189.406 181.262 189.289 182.41C189.195 183.559 189.102 184.754 189.008 185.996C188.914 187.215 188.809 188.516 188.691 189.898C188.598 191.258 188.48 192.746 188.34 194.363L186.793 212.891C186.77 213.102 186.723 213.312 186.652 213.523C186.605 213.711 186.453 213.863 186.195 213.98C186.172 213.98 186.031 214.027 185.773 214.121C185.516 214.215 185.176 214.344 184.754 214.508C184.332 214.648 183.84 214.801 183.277 214.965C182.715 215.129 182.117 215.281 181.484 215.422C180.43 215.656 179.504 215.891 178.707 216.125C177.934 216.359 177.242 216.57 176.633 216.758C176.023 216.969 175.461 217.133 174.945 217.25C174.43 217.367 173.914 217.426 173.398 217.426C173.047 217.426 172.754 217.332 172.52 217.145C172.285 216.957 172.168 216.617 172.168 216.125Z" fill="#141414"/>
<path d="M212.246 216.828C211.988 216.781 211.801 216.652 211.684 216.441C211.566 216.23 211.508 215.996 211.508 215.738C211.508 215.527 211.555 215.34 211.648 215.176L215.973 206.914C215.996 206.82 216.031 206.457 216.078 205.824C216.148 205.191 216.219 204.406 216.289 203.469C216.359 202.508 216.43 201.441 216.5 200.27C216.594 199.098 216.688 197.938 216.781 196.789C216.875 195.641 216.957 194.551 217.027 193.52C217.121 192.465 217.203 191.586 217.273 190.883C217.297 190.602 217.332 190.18 217.379 189.617C217.426 189.031 217.473 188.363 217.52 187.613C217.566 186.863 217.625 186.055 217.695 185.188C217.766 184.32 217.836 183.453 217.906 182.586L218.398 175.238C217.766 175.379 217.109 175.531 216.43 175.695C215.75 175.836 215.082 175.965 214.426 176.082C213.793 176.199 213.184 176.305 212.598 176.398C212.035 176.469 211.543 176.504 211.121 176.504C210.863 176.504 210.664 176.387 210.523 176.152C210.406 175.918 210.348 175.672 210.348 175.414C210.348 175.109 210.418 174.887 210.559 174.746L219.488 166.414C220.215 165.758 220.93 165.23 221.633 164.832C222.359 164.41 223.227 164.082 224.234 163.848C225.242 163.613 226.473 163.461 227.926 163.391C229.402 163.297 231.266 163.25 233.516 163.25C237.359 163.25 240.77 163.648 243.746 164.445C246.723 165.242 249.242 166.379 251.305 167.855C252.828 168.91 254.188 170.012 255.383 171.16C256.578 172.309 257.586 173.586 258.406 174.992C259.227 176.375 259.848 177.91 260.27 179.598C260.691 181.262 260.902 183.148 260.902 185.258C260.902 189.266 260.305 192.828 259.109 195.945C257.914 199.062 256.285 201.793 254.223 204.137C252.16 206.457 249.746 208.426 246.98 210.043C244.238 211.66 241.297 212.973 238.156 213.98C235.039 214.988 231.805 215.715 228.453 216.16C225.125 216.605 221.855 216.828 218.645 216.828H212.246ZM232.672 174.5L232.25 178.754C232.109 180.23 231.957 181.812 231.793 183.5C231.652 185.164 231.512 186.863 231.371 188.598C231.23 190.309 231.09 192.008 230.949 193.695C230.809 195.359 230.68 196.918 230.562 198.371C230.445 199.824 230.34 201.125 230.246 202.273C230.152 203.422 230.07 204.336 230 205.016L229.895 206.07C232.73 206.07 235.121 205.613 237.066 204.699C239.035 203.785 240.629 202.531 241.848 200.938C243.066 199.32 243.945 197.434 244.484 195.277C245.047 193.121 245.328 190.801 245.328 188.316C245.328 186.535 245.082 184.824 244.59 183.184C244.098 181.52 243.383 179.938 242.445 178.438C241.508 176.938 240.359 175.812 239 175.062C237.641 174.312 236.105 173.938 234.395 173.938C234.113 173.938 233.809 174.008 233.48 174.148C233.152 174.266 232.883 174.383 232.672 174.5Z" fill="#141414"/>
<path d="M285.688 175.766C287.914 175.766 289.93 176.188 291.734 177.031C293.562 177.852 295.121 178.93 296.41 180.266C297.723 181.578 298.73 183.055 299.434 184.695C300.137 186.336 300.488 187.977 300.488 189.617C300.488 191.07 300.043 192.535 299.152 194.012C298.262 195.465 297.008 196.777 295.391 197.949C293.797 199.121 291.875 200.07 289.625 200.797C287.375 201.523 284.902 201.887 282.207 201.887C280.801 201.887 279.324 201.746 277.777 201.465C277.871 202.473 278.164 203.34 278.656 204.066C279.148 204.793 279.77 205.391 280.52 205.859C281.27 206.328 282.113 206.68 283.051 206.914C284.012 207.125 284.996 207.23 286.004 207.23C287.129 207.23 288.207 207.137 289.238 206.949C290.293 206.738 291.301 206.469 292.262 206.141C293.223 205.812 294.148 205.449 295.039 205.051C295.93 204.652 296.773 204.254 297.57 203.855C297.781 203.809 297.957 203.773 298.098 203.75C298.262 203.703 298.414 203.68 298.555 203.68C298.555 203.68 298.543 203.867 298.52 204.242C298.52 204.617 298.52 205.145 298.52 205.824C298.52 206.504 298.508 207.324 298.484 208.285C298.484 209.246 298.473 210.312 298.449 211.484C298.52 211.602 298.566 211.719 298.59 211.836C298.613 211.953 298.625 212.047 298.625 212.117C298.625 212.398 298.367 212.703 297.852 213.031C297.336 213.359 296.656 213.699 295.812 214.051C294.992 214.402 294.043 214.742 292.965 215.07C291.91 215.398 290.832 215.691 289.73 215.949C288.629 216.23 287.562 216.441 286.531 216.582C285.5 216.746 284.598 216.828 283.824 216.828C281.293 216.828 278.832 216.383 276.441 215.492C274.074 214.625 271.965 213.371 270.113 211.73C268.285 210.09 266.82 208.098 265.719 205.754C264.617 203.41 264.066 200.773 264.066 197.844C264.066 194.773 264.594 191.902 265.648 189.23C266.703 186.535 268.18 184.191 270.078 182.199C272 180.207 274.285 178.637 276.934 177.488C279.582 176.34 282.5 175.766 285.688 175.766ZM285.266 185.117C284.305 185.117 283.414 185.328 282.594 185.75C281.797 186.148 281.059 186.734 280.379 187.508C279.723 188.258 279.148 189.172 278.656 190.25C278.164 191.305 277.766 192.477 277.461 193.766C279.875 193.344 281.879 192.898 283.473 192.43C285.066 191.961 286.344 191.492 287.305 191.023C288.266 190.531 288.945 190.051 289.344 189.582C289.742 189.09 289.941 188.621 289.941 188.176C289.941 187.754 289.777 187.355 289.449 186.98C289.145 186.605 288.758 186.277 288.289 185.996C287.82 185.715 287.305 185.504 286.742 185.363C286.203 185.199 285.711 185.117 285.266 185.117Z" fill="#141414"/>
<path d="M305.059 205.297C305.059 205.273 305.047 205.262 305.023 205.262C305.023 205.238 305.023 205.215 305.023 205.191C305.023 204.887 305.188 204.734 305.516 204.734C305.727 204.734 305.914 204.816 306.078 204.98C307.016 205.871 308.082 206.598 309.277 207.16C310.496 207.723 311.809 208.004 313.215 208.004C313.59 208.004 314.023 207.969 314.516 207.898C315.008 207.805 315.477 207.664 315.922 207.477C316.367 207.289 316.73 207.043 317.012 206.738C317.316 206.41 317.469 206.012 317.469 205.543C317.469 205.027 317.34 204.559 317.082 204.137C316.824 203.691 316.484 203.328 316.062 203.047C315.828 202.883 315.418 202.602 314.832 202.203C314.246 201.781 313.613 201.336 312.934 200.867C312.277 200.398 311.645 199.953 311.035 199.531C310.449 199.109 310.039 198.805 309.805 198.617C308.75 197.82 307.906 197.012 307.273 196.191C306.664 195.371 306.195 194.527 305.867 193.66C305.539 192.77 305.328 191.844 305.234 190.883C305.141 189.922 305.094 188.902 305.094 187.824C305.094 186.184 305.527 184.637 306.395 183.184C307.262 181.73 308.398 180.453 309.805 179.352C311.234 178.25 312.852 177.383 314.656 176.75C316.461 176.094 318.301 175.766 320.176 175.766C321.723 175.766 323.246 176 324.746 176.469C326.246 176.938 327.641 177.734 328.93 178.859C329.047 180.336 329.129 181.789 329.176 183.219C329.223 184.648 329.293 186.148 329.387 187.719C329.387 188.023 329.316 188.234 329.176 188.352C329.035 188.445 328.871 188.492 328.684 188.492C328.52 188.492 328.379 188.434 328.262 188.316C327.723 187.801 327.172 187.297 326.609 186.805C326.047 186.289 325.449 185.844 324.816 185.469C324.207 185.07 323.551 184.754 322.848 184.52C322.145 184.262 321.395 184.133 320.598 184.133C320.105 184.133 319.613 184.18 319.121 184.273C318.629 184.344 318.184 184.496 317.785 184.73C317.387 184.941 317.059 185.234 316.801 185.609C316.566 185.984 316.449 186.465 316.449 187.051C316.449 187.73 316.531 188.316 316.695 188.809C316.859 189.301 317.246 189.781 317.855 190.25L324.395 194.68C325.59 195.5 326.551 196.309 327.277 197.105C328.027 197.879 328.613 198.652 329.035 199.426C329.457 200.199 329.738 200.973 329.879 201.746C330.043 202.496 330.125 203.246 330.125 203.996C330.125 206.105 329.633 207.969 328.648 209.586C327.688 211.18 326.434 212.516 324.887 213.594C323.34 214.648 321.582 215.445 319.613 215.984C317.668 216.547 315.711 216.828 313.742 216.828C312.242 216.828 310.789 216.664 309.383 216.336C308 216.031 306.711 215.551 305.516 214.895L305.059 205.297Z" fill="#141414"/>
<path d="M336.102 200.094C336.406 196.883 336.711 193.707 337.016 190.566C337.32 187.426 337.59 184.203 337.824 180.898C337.871 180.125 337.941 179.598 338.035 179.316C338.152 179.012 338.422 178.812 338.844 178.719C340.836 178.32 342.922 177.91 345.102 177.488C347.281 177.043 349.391 176.48 351.43 175.801C351.5 175.777 351.605 175.766 351.746 175.766C352.004 175.766 352.133 175.859 352.133 176.047L348.969 210.289C348.898 211.062 348.816 211.602 348.723 211.906C348.629 212.188 348.371 212.375 347.949 212.469C345.957 213.078 343.941 213.758 341.902 214.508C339.863 215.258 337.707 216.02 335.434 216.793C335.363 216.816 335.258 216.828 335.117 216.828C334.859 216.828 334.73 216.711 334.73 216.477C334.73 216.453 334.754 216.137 334.801 215.527C334.848 214.918 334.906 214.133 334.977 213.172C335.07 212.211 335.164 211.133 335.258 209.938C335.352 208.742 335.445 207.547 335.539 206.352C335.656 205.156 335.762 204.008 335.855 202.906C335.949 201.805 336.031 200.867 336.102 200.094ZM338.738 172.039C338.809 171.031 338.855 170.258 338.879 169.719C338.926 169.18 338.961 168.781 338.984 168.523C339.008 168.242 339.02 168.066 339.02 167.996C339.02 167.926 339.02 167.879 339.02 167.855C339.043 167.809 339.055 167.738 339.055 167.645C339.078 167.527 339.102 167.305 339.125 166.977C339.148 166.625 339.184 166.121 339.23 165.465C339.277 164.809 339.348 163.906 339.441 162.758C339.488 161.984 339.559 161.457 339.652 161.176C339.77 160.871 340.039 160.672 340.461 160.578C342.453 160.18 344.539 159.77 346.719 159.348C348.898 158.902 351.008 158.34 353.047 157.66C353.117 157.637 353.223 157.625 353.363 157.625C353.434 157.766 353.527 157.859 353.645 157.906L353.75 157.977L352.977 167.609C352.906 168.383 352.812 168.922 352.695 169.227C352.602 169.531 352.355 169.719 351.957 169.789C349.965 170.164 347.949 170.574 345.91 171.02C343.871 171.465 341.715 171.91 339.441 172.355C339.371 172.379 339.266 172.391 339.125 172.391C338.867 172.391 338.738 172.273 338.738 172.039Z" fill="#141414"/>
<path d="M382.332 189.934C382.098 189.395 381.77 188.844 381.348 188.281C380.949 187.719 380.48 187.203 379.941 186.734C379.402 186.266 378.816 185.891 378.184 185.609C377.551 185.305 376.883 185.152 376.18 185.152C375.219 185.152 374.316 185.551 373.473 186.348C372.629 187.145 371.891 188.211 371.258 189.547C370.625 190.859 370.121 192.371 369.746 194.082C369.395 195.77 369.219 197.527 369.219 199.355C369.219 200.48 369.312 201.547 369.5 202.555C369.711 203.539 370.027 204.406 370.449 205.156C370.871 205.906 371.41 206.504 372.066 206.949C372.746 207.395 373.555 207.617 374.492 207.617C375.898 207.617 377.188 207.184 378.359 206.316C379.531 205.426 380.527 204.277 381.348 202.871C381.371 202.379 381.406 201.793 381.453 201.113C381.5 200.434 381.559 199.613 381.629 198.652C381.699 197.668 381.781 196.52 381.875 195.207C381.992 193.871 382.133 192.289 382.297 190.461L382.332 189.934ZM393.969 211.168C393.734 213.488 393.207 215.656 392.387 217.672C391.566 219.688 390.523 221.527 389.258 223.191C388.016 224.879 386.586 226.379 384.969 227.691C383.375 229.027 381.676 230.152 379.871 231.066C378.09 231.98 376.25 232.672 374.352 233.141C372.453 233.633 370.578 233.879 368.727 233.879C367.742 233.879 366.734 233.844 365.703 233.773C364.672 233.703 363.664 233.562 362.68 233.352C361.695 233.164 360.758 232.883 359.867 232.508C358.977 232.156 358.18 231.699 357.477 231.137V231.102C357.477 230.984 357.559 230.574 357.723 229.871C357.91 229.168 358.121 228.336 358.355 227.375C358.613 226.438 358.871 225.465 359.129 224.457C359.41 223.449 359.645 222.582 359.832 221.855C359.926 221.527 360.02 221.305 360.113 221.188C360.207 221.07 360.312 221.012 360.43 221.012C360.57 221.012 360.652 221.023 360.676 221.047C361.355 221.492 361.988 221.855 362.574 222.137C363.184 222.441 363.816 222.676 364.473 222.84C365.152 223.027 365.891 223.156 366.688 223.227C367.484 223.297 368.41 223.332 369.465 223.332C371.105 223.332 372.559 223.016 373.824 222.383C375.09 221.75 376.18 220.93 377.094 219.922C378.008 218.914 378.734 217.801 379.273 216.582C379.836 215.387 380.223 214.203 380.434 213.031C378.746 214.156 377.035 215.07 375.301 215.773C373.566 216.477 371.82 216.828 370.062 216.828C367.648 216.828 365.562 216.336 363.805 215.352C362.047 214.391 360.594 213.09 359.445 211.449C358.297 209.809 357.441 207.934 356.879 205.824C356.34 203.691 356.07 201.465 356.07 199.145C356.07 197.316 356.234 195.477 356.562 193.625C356.914 191.75 357.418 189.945 358.074 188.211C358.754 186.477 359.586 184.859 360.57 183.359C361.555 181.836 362.691 180.512 363.98 179.387C365.27 178.262 366.699 177.383 368.27 176.75C369.84 176.094 371.551 175.766 373.402 175.766C375.418 175.766 377.281 176.211 378.992 177.102C380.727 177.992 382.297 179.094 383.703 180.406C383.75 179.984 383.785 179.656 383.809 179.422C383.832 179.164 383.891 178.965 383.984 178.824C384.078 178.684 384.23 178.578 384.441 178.508C384.676 178.438 385.004 178.355 385.426 178.262C385.684 178.215 386.152 178.121 386.832 177.98C387.512 177.816 388.32 177.629 389.258 177.418C390.195 177.207 391.227 176.984 392.352 176.75C393.477 176.516 394.613 176.27 395.762 176.012C396.043 175.941 396.301 175.906 396.535 175.906C397.262 175.906 397.625 176.375 397.625 177.312C397.625 177.43 397.625 177.547 397.625 177.664C397.625 177.758 397.613 177.863 397.59 177.98L393.969 211.168Z" fill="#141414"/>
<path d="M431.445 216.266C431.188 216.336 430.848 216.441 430.426 216.582C430.004 216.746 429.594 216.828 429.195 216.828C428.867 216.828 428.574 216.746 428.316 216.582C428.082 216.418 427.965 216.137 427.965 215.738V215.527C428.105 214.262 428.223 213.195 428.316 212.328C428.41 211.438 428.492 210.641 428.562 209.938C428.656 209.211 428.727 208.496 428.773 207.793C428.844 207.066 428.926 206.234 429.02 205.297C429.113 204.336 429.219 203.211 429.336 201.922C429.477 200.609 429.641 198.98 429.828 197.035C429.945 195.84 430.051 194.621 430.145 193.379C430.238 192.137 430.285 190.988 430.285 189.934C430.285 189.23 430.227 188.586 430.109 188C430.016 187.391 429.828 186.875 429.547 186.453C429.289 186.008 428.926 185.668 428.457 185.434C427.988 185.199 427.391 185.082 426.664 185.082C426.125 185.082 425.375 185.199 424.414 185.434C423.477 185.668 422.539 186.055 421.602 186.594C420.664 187.133 419.832 187.848 419.105 188.738C418.379 189.605 417.969 190.684 417.875 191.973C417.734 193.707 417.605 195.195 417.488 196.438C417.371 197.656 417.266 198.699 417.172 199.566C417.078 200.41 416.996 201.102 416.926 201.641C416.879 202.18 416.844 202.637 416.82 203.012C416.797 203.105 416.762 203.363 416.715 203.785C416.668 204.207 416.609 204.711 416.539 205.297C416.492 205.883 416.434 206.504 416.363 207.16C416.316 207.816 416.258 208.438 416.188 209.023C416.141 209.609 416.094 210.113 416.047 210.535C416.023 210.957 416.012 211.215 416.012 211.309C416.012 211.496 416.012 211.66 416.012 211.801C416.035 211.918 416.047 212.035 416.047 212.152C416.047 212.34 415.953 212.504 415.766 212.645C415.602 212.762 415.215 212.902 414.605 213.066L405.289 216.266C405.031 216.359 404.691 216.477 404.27 216.617C403.848 216.758 403.438 216.828 403.039 216.828C402.711 216.828 402.418 216.746 402.16 216.582C401.926 216.418 401.809 216.137 401.809 215.738L405.008 179.809C405.078 179.035 405.16 178.508 405.254 178.227C405.371 177.922 405.641 177.723 406.062 177.629C408.195 177.207 410.387 176.785 412.637 176.363C414.887 175.918 417.078 175.355 419.211 174.676C419.398 174.676 419.504 174.711 419.527 174.781C419.574 174.828 419.598 174.91 419.598 175.027C419.598 175.074 419.586 175.145 419.562 175.238C419.562 175.332 419.527 175.543 419.457 175.871C419.41 176.199 419.328 176.703 419.211 177.383C419.117 178.039 418.977 178.965 418.789 180.16C420.406 179.223 421.918 178.473 423.324 177.91C424.754 177.324 426.09 176.879 427.332 176.574C428.598 176.246 429.781 176.035 430.883 175.941C431.984 175.824 433.016 175.766 433.977 175.766C437.281 175.766 439.684 176.773 441.184 178.789C442.684 180.781 443.434 183.781 443.434 187.789C443.434 188.352 443.422 188.938 443.398 189.547C443.375 190.133 443.328 190.742 443.258 191.375L441.641 206.492C441.523 207.477 441.453 208.391 441.43 209.234C441.406 210.055 441.395 211.016 441.395 212.117C441.395 212.305 441.395 212.469 441.395 212.609C441.418 212.727 441.43 212.832 441.43 212.926C441.43 213.137 441.336 213.301 441.148 213.418C440.984 213.535 440.598 213.688 439.988 213.875L431.445 216.266Z" fill="#141414"/>
<path d="M469.695 175.766C471.922 175.766 473.938 176.188 475.742 177.031C477.57 177.852 479.129 178.93 480.418 180.266C481.73 181.578 482.738 183.055 483.441 184.695C484.145 186.336 484.496 187.977 484.496 189.617C484.496 191.07 484.051 192.535 483.16 194.012C482.27 195.465 481.016 196.777 479.398 197.949C477.805 199.121 475.883 200.07 473.633 200.797C471.383 201.523 468.91 201.887 466.215 201.887C464.809 201.887 463.332 201.746 461.785 201.465C461.879 202.473 462.172 203.34 462.664 204.066C463.156 204.793 463.777 205.391 464.527 205.859C465.277 206.328 466.121 206.68 467.059 206.914C468.02 207.125 469.004 207.23 470.012 207.23C471.137 207.23 472.215 207.137 473.246 206.949C474.301 206.738 475.309 206.469 476.27 206.141C477.23 205.812 478.156 205.449 479.047 205.051C479.938 204.652 480.781 204.254 481.578 203.855C481.789 203.809 481.965 203.773 482.105 203.75C482.27 203.703 482.422 203.68 482.562 203.68C482.562 203.68 482.551 203.867 482.527 204.242C482.527 204.617 482.527 205.145 482.527 205.824C482.527 206.504 482.516 207.324 482.492 208.285C482.492 209.246 482.48 210.312 482.457 211.484C482.527 211.602 482.574 211.719 482.598 211.836C482.621 211.953 482.633 212.047 482.633 212.117C482.633 212.398 482.375 212.703 481.859 213.031C481.344 213.359 480.664 213.699 479.82 214.051C479 214.402 478.051 214.742 476.973 215.07C475.918 215.398 474.84 215.691 473.738 215.949C472.637 216.23 471.57 216.441 470.539 216.582C469.508 216.746 468.605 216.828 467.832 216.828C465.301 216.828 462.84 216.383 460.449 215.492C458.082 214.625 455.973 213.371 454.121 211.73C452.293 210.09 450.828 208.098 449.727 205.754C448.625 203.41 448.074 200.773 448.074 197.844C448.074 194.773 448.602 191.902 449.656 189.23C450.711 186.535 452.188 184.191 454.086 182.199C456.008 180.207 458.293 178.637 460.941 177.488C463.59 176.34 466.508 175.766 469.695 175.766ZM469.273 185.117C468.312 185.117 467.422 185.328 466.602 185.75C465.805 186.148 465.066 186.734 464.387 187.508C463.73 188.258 463.156 189.172 462.664 190.25C462.172 191.305 461.773 192.477 461.469 193.766C463.883 193.344 465.887 192.898 467.48 192.43C469.074 191.961 470.352 191.492 471.312 191.023C472.273 190.531 472.953 190.051 473.352 189.582C473.75 189.09 473.949 188.621 473.949 188.176C473.949 187.754 473.785 187.355 473.457 186.98C473.152 186.605 472.766 186.277 472.297 185.996C471.828 185.715 471.312 185.504 470.75 185.363C470.211 185.199 469.719 185.117 469.273 185.117Z" fill="#141414"/>
<path d="M517.648 186.383C517.156 186.336 516.605 186.289 515.996 186.242C515.387 186.172 514.742 186.137 514.062 186.137C513.031 186.137 511.977 186.23 510.898 186.418C509.844 186.582 508.859 186.922 507.945 187.438C507.031 187.953 506.246 188.668 505.59 189.582C504.934 190.473 504.512 191.633 504.324 193.062C504.16 194.797 504.02 196.227 503.902 197.352C503.809 198.453 503.738 199.367 503.691 200.094C503.645 200.797 503.598 201.371 503.551 201.816C503.527 202.238 503.504 202.637 503.48 203.012C503.48 203.105 503.457 203.363 503.41 203.785C503.387 204.207 503.34 204.699 503.27 205.262C503.199 205.824 503.129 206.434 503.059 207.09C503.012 207.746 502.953 208.355 502.883 208.918C502.812 209.48 502.754 209.973 502.707 210.395C502.684 210.816 502.672 211.074 502.672 211.168C502.672 211.355 502.672 211.52 502.672 211.66C502.695 211.777 502.707 211.895 502.707 212.012C502.707 212.199 502.613 212.363 502.426 212.504C502.262 212.621 501.875 212.762 501.266 212.926L491.949 216.266C491.691 216.359 491.352 216.477 490.93 216.617C490.508 216.758 490.098 216.828 489.699 216.828C489.371 216.828 489.078 216.746 488.82 216.582C488.586 216.418 488.469 216.137 488.469 215.738L491.492 180.898C491.562 180.125 491.645 179.598 491.738 179.316C491.855 179.012 492.125 178.812 492.547 178.719C494.68 178.297 496.883 177.875 499.156 177.453C501.43 177.008 503.633 176.445 505.766 175.766C505.953 175.766 506.059 175.801 506.082 175.871C506.129 175.918 506.152 176 506.152 176.117C506.152 176.164 506.141 176.234 506.117 176.328C506.117 176.422 506.082 176.633 506.012 176.961C505.965 177.289 505.883 177.793 505.766 178.473C505.672 179.129 505.531 180.055 505.344 181.25C506.422 180.406 507.605 179.633 508.895 178.93C510.207 178.227 511.52 177.629 512.832 177.137C514.145 176.621 515.41 176.223 516.629 175.941C517.848 175.637 518.914 175.484 519.828 175.484L517.648 186.383Z" fill="#141414"/>
</svg>
